<?xml version="1.0" encoding="UTF-8"?>
<svg width="128px" height="128px" viewBox="0 0 128 128" version="1.1" xmlns="http://www.w3.org/2000/svg" xmlns:xlink="http://www.w3.org/1999/xlink">
    <g stroke="none" stroke-width="1" fill="none" fill-rule="evenodd">
        <g id="hyphen-logo" transform="translate(13.000000, 17.000000)" fill="#615CCD" fill-rule="nonzero">
            <path d="M42.8120988,59.4815772 L42.8120988,67.629698 C42.8120988,69.9111718 41.0314296,71.7037584 38.7651235,71.7037584 L30.6711728,71.7037584 C28.4048667,71.7037584 26.6241975,69.9111718 26.6241975,67.629698 L26.6241975,26.8890939 C26.6241975,24.6076201 28.4048667,22.8150335 30.6711728,22.8150335 L33.0184185,22.8150335 C36.6606963,22.8150335 38.4413654,18.4150483 35.8513012,15.8891308 L21.4440691,1.22251336 C20.6896713,0.440971525 19.6532273,0 18.5707167,0 C17.4882061,0 16.4517621,0.440971525 15.6973642,1.22251336 L1.2091926,15.8891308 C-1.38087159,18.4150483 0.480737049,22.8150335 4.04207532,22.8150335 L6.389321,22.8150335 C8.65562717,22.8150335 10.4362963,24.6076201 10.4362963,26.8890939 L10.4362963,83.9259396 C10.4362963,86.2074134 12.2169654,88 14.4832716,88 L54.9530247,88 C57.2193309,88 59,86.2074134 59,83.9259396 L59,59.4815772 C59,57.2001033 57.2193309,55.4075168 54.9530247,55.4075168 L46.8590741,55.4075168 C44.6737074,55.4075168 42.8120988,57.2001033 42.8120988,59.4815772 Z" id="Path"></path>
            <path d="M95.5705897,71.5041705 C93.3060105,71.5041705 91.5266982,69.7303058 91.5266982,67.4726599 L91.5266982,11.0315107 C91.5266982,8.77386469 89.747386,7 87.4828067,7 L47.0438915,7 C44.7793123,7 43,8.77386469 43,11.0315107 L43,35.2205746 C43,37.4782206 44.7793123,39.2520853 47.0438915,39.2520853 L55.1316746,39.2520853 C57.3962538,39.2520853 59.1755661,37.4782206 59.1755661,35.2205746 L59.1755661,27.1575533 C59.1755661,24.8999073 60.9548783,23.1260426 63.2194576,23.1260426 L71.3072406,23.1260426 C73.5718199,23.1260426 75.3511321,24.8999073 75.3511321,27.1575533 L75.3511321,67.4726599 C75.3511321,69.7303058 73.5718199,71.5041705 71.3072406,71.5041705 L68.9617835,71.5041705 C65.3222812,71.5041705 63.5429689,75.858202 66.1310595,78.3577386 L80.6081911,92.7905468 C82.2257477,94.4031511 84.7329605,94.4031511 86.3505171,92.7905468 L100.827649,78.3577386 C103.334861,75.858202 101.555549,71.5041705 97.9969246,71.5041705 L95.5705897,71.5041705 L95.5705897,71.5041705 Z" id="Path"></path>
        </g>
    </g>
</svg>