<svg id="Layer_1" data-name="Layer 1" xmlns="http://www.w3.org/2000/svg" xmlns:xlink="http://www.w3.org/1999/xlink" viewBox="0 0 197.45 197.49"><defs><style>.cls-1,.cls-5{fill:none;}.cls-2{clip-path:url(#clip-path);}.cls-3{clip-path:url(#clip-path-2);}.cls-4{clip-path:url(#clip-path-3);}.cls-5{stroke:#412999;stroke-miterlimit:10;stroke-width:0.74px;stroke-dasharray:3.71;opacity:0.5;}.cls-6{fill:#5f3cd8;}</style><clipPath id="clip-path"><rect class="cls-1" x="283.08" y="-3306.27" width="1497.63" height="998.79" transform="translate(2063.79 -5613.75) rotate(180)"/></clipPath><clipPath id="clip-path-2"><rect class="cls-1" x="283.08" y="-2213.26" width="1497.63" height="998.79" transform="translate(2063.79 -3427.72) rotate(180)"/></clipPath><clipPath id="clip-path-3"><rect class="cls-1" x="-1399.81" y="-429.05" width="556.23" height="370.96" transform="translate(-2243.39 -487.14) rotate(180)"/></clipPath></defs><g class="cls-4"><circle class="cls-5" cx="-164.17" cy="80.19" r="871.05"/></g><path class="cls-6" d="M98.71,21.94a76.81,76.81,0,1,0,76.8,76.81A76.81,76.81,0,0,0,98.71,21.94Zm0,142.65a65.84,65.84,0,1,1,65.82-65.84A65.83,65.83,0,0,1,98.71,164.59ZM98.71,0a98.75,98.75,0,1,0,98.74,98.75A98.75,98.75,0,0,0,98.71,0Zm0,186.53a87.78,87.78,0,1,1,87.76-87.78A87.79,87.79,0,0,1,98.71,186.53Zm0-164.59a76.81,76.81,0,1,0,76.8,76.81A76.81,76.81,0,0,0,98.71,21.94Zm0,142.65a65.84,65.84,0,1,1,65.82-65.84A65.83,65.83,0,0,1,98.71,164.59Zm0-142.65a76.81,76.81,0,1,0,76.8,76.81A76.81,76.81,0,0,0,98.71,21.94Zm0,142.65a65.84,65.84,0,1,1,65.82-65.84A65.83,65.83,0,0,1,98.71,164.59Z"/></svg>