<?xml version="1.0" encoding="UTF-8"?>
<svg xmlns="http://www.w3.org/2000/svg" xmlns:xlink="http://www.w3.org/1999/xlink" width="240px" height="240px" viewBox="0 0 240 240" version="1.1">
<g id="surface1">
<path style=" stroke:none;fill-rule:nonzero;fill:rgb(43.137255%,30.588236%,100%);fill-opacity:1;" d="M 119.925781 0.113281 C 53.691406 0.113281 0.0273438 53.800781 0.0273438 120.011719 C 0.0273438 186.226562 53.714844 239.914062 119.925781 239.914062 C 186.136719 239.914062 239.824219 186.226562 239.824219 120.011719 C 239.824219 53.800781 186.136719 0.113281 119.925781 0.113281 Z M 119.925781 211.144531 C 69.601562 211.144531 28.792969 170.339844 28.792969 120.011719 C 28.792969 69.6875 69.601562 28.882812 119.925781 28.882812 C 170.25 28.882812 211.054688 69.6875 211.054688 120.011719 C 211.054688 170.339844 170.25 211.144531 119.925781 211.144531 Z M 119.925781 211.144531 "/>
<path style=" stroke:none;fill-rule:nonzero;fill:rgb(43.137255%,30.588236%,100%);fill-opacity:1;" d="M 119.925781 52.679688 C 82.734375 52.679688 52.589844 82.824219 52.589844 120.011719 C 52.589844 157.203125 82.734375 187.347656 119.925781 187.347656 C 157.113281 187.347656 187.257812 157.203125 187.257812 120.011719 C 187.257812 82.824219 157.113281 52.679688 119.925781 52.679688 Z M 119.925781 159.953125 C 97.859375 159.953125 79.984375 142.078125 79.984375 120.011719 C 79.984375 97.949219 97.859375 80.074219 119.925781 80.074219 C 141.988281 80.074219 159.863281 97.949219 159.863281 120.011719 C 159.863281 142.078125 141.988281 159.953125 119.925781 159.953125 Z M 119.925781 159.953125 "/>
</g>
</svg>
