<svg width="40" height="40" viewBox="0 0 40 40" fill="none" xmlns="http://www.w3.org/2000/svg">
<circle cx="20" cy="20" r="20" fill="black"/>
<path d="M13.75 29.6249L13.3194 29.8729L13.3197 29.3763C13.3197 29.3763 13.3137 29.6303 13.4284 29.6937C13.5408 29.7559 13.75 29.6249 13.75 29.6249Z" fill="#8E3315"/>
<path d="M2.70065 29.1128C5.12742 33.6975 9.27792 37.1306 14.2391 38.658C19.2003 40.1853 24.5658 39.6815 29.1553 37.2569C33.7447 34.8324 37.1822 30.6859 38.7114 25.7296C40.2407 20.7734 39.7262 15.4132 37.2993 10.8285C39.4874 17.7185 31.8689 20.1391 31.8689 20.1391L22.6481 24.9536L13.065 29.9468C13.065 29.9468 6.53369 34.1473 2.70065 29.1128Z" fill="#473ADE"/>
<path d="M2.66632 29.1465C5.09309 33.7311 9.2436 37.1648 14.2048 38.6923C19.166 40.2198 24.5315 39.7156 29.121 37.2912C33.7105 34.8666 37.1479 30.7201 38.6772 25.7639C40.2063 20.8077 39.7024 15.4476 37.2755 10.863C39.464 17.753 31.8347 20.1734 31.8347 20.1734L22.6138 24.9878L13.0307 29.9811C13.0307 29.9811 6.49936 34.181 2.66632 29.1465Z" fill="url(#paint0_linear_403_15)"/>
<path d="M31.6233 19.6611L32.3352 20.0068L31.5838 20.308C31.5838 20.308 31.9062 20.1559 31.9447 20.0068C31.9824 19.8607 31.6233 19.6611 31.6233 19.6611Z" fill="#251E73"/>
<path d="M37.4179 28.9082C39.7875 24.294 40.2255 18.9281 38.6349 13.9912C37.0443 9.0542 33.5558 4.95054 28.9366 2.58292C24.3175 0.215299 18.9462 -0.222324 14.0042 1.36632C9.06236 2.95495 4.95467 6.43971 2.5849 11.054C6.98232 5.31368 13.3402 10.1721 13.3402 10.1721L22.5741 14.9615L32.1623 19.945C32.1623 19.945 39.3506 22.8848 37.4179 28.9082Z" fill="#D71D6A"/>
<path d="M37.3709 28.8893C39.7337 24.2887 40.1702 18.9389 38.5842 14.0166C36.9984 9.0944 33.5203 5.00293 28.9149 2.64238C24.3095 0.281816 18.9542 -0.154504 14.027 1.4294C9.0998 3.01331 5.00435 6.48771 2.64163 11.0882C7.02596 5.36504 13.3649 10.209 13.3649 10.209L22.5713 14.9841L32.131 19.9527C32.131 19.9527 39.2981 22.8838 37.3709 28.8893Z" fill="url(#paint1_linear_403_15)"/>
<path d="M13.3222 10.6356L13.3142 10.1157L13.7689 10.3686C13.7689 10.3686 13.5393 10.234 13.4228 10.3065C13.3087 10.3776 13.3222 10.6356 13.3222 10.6356Z" fill="#741039"/>
<path d="M20.0029 0.422028C14.8116 0.422028 9.8329 2.48237 6.16212 6.14981C2.49133 9.81727 0.429108 14.7914 0.429108 19.9779C0.429108 25.1645 2.49133 30.1386 6.16212 33.806C9.8329 37.4735 14.8116 39.5338 20.0028 39.5338C13.3402 38.4163 13.3402 29.7928 13.3402 29.7928V19.9779V9.98942C13.3402 9.98942 13.3402 1.61337 20.0029 0.422028Z" fill="#FF5B25"/>
<path d="M20.0029 0.376343C14.8116 0.376343 9.8329 2.43669 6.16212 6.10413C2.49134 9.77156 0.429108 14.7457 0.429108 19.9322C0.429108 25.1188 2.49133 30.0929 6.16212 33.7604C9.8329 37.4278 14.8116 39.488 20.0028 39.488C13.3402 37.3616 13.3402 29.8035 13.3402 29.8035V19.9564V10.1721C13.3402 10.1721 13.0978 1.64363 20.0029 0.376343Z" fill="url(#paint2_linear_403_15)"/>
<path d="M20.0029 0.376343C14.8116 0.376343 9.8329 2.43669 6.16212 6.10413C2.49134 9.77156 0.429108 14.7457 0.429108 19.9322C0.429108 25.1188 2.49133 30.0929 6.16212 33.7604C9.8329 37.4278 14.8116 39.488 20.0028 39.488C13.3402 37.3616 13.3402 29.8035 13.3402 29.8035V19.9564V10.1721C13.3402 10.1721 13.0978 1.64363 20.0029 0.376343Z" fill="url(#paint3_linear_403_15)" fill-opacity="0.3"/>
<path d="M19.9514 39.5252C13.3402 36.5167 13.348 29.8005 13.348 29.8005C13.348 29.8005 5.15379 34.4184 2.3952 28.5121C2.3952 28.5121 7.01955 39.5644 19.9514 39.5252Z" fill="#473ADE"/>
<defs>
<linearGradient id="paint0_linear_403_15" x1="37.277" y1="17.7483" x2="8.8241" y2="45.8685" gradientUnits="userSpaceOnUse">
<stop stop-opacity="0.6"/>
<stop offset="0.655513" stop-opacity="0"/>
</linearGradient>
<linearGradient id="paint1_linear_403_15" x1="8.27172" y1="7.15262" x2="47.5183" y2="14.36" gradientUnits="userSpaceOnUse">
<stop stop-opacity="0.6"/>
<stop offset="0.645833" stop-opacity="0"/>
</linearGradient>
<linearGradient id="paint2_linear_403_15" x1="10.9114" y1="37.0656" x2="-0.712224" y2="1.22852" gradientUnits="userSpaceOnUse">
<stop stop-opacity="0.6"/>
<stop offset="0.675464" stop-opacity="0"/>
</linearGradient>
<linearGradient id="paint3_linear_403_15" x1="10.9114" y1="37.0656" x2="-0.712224" y2="1.22852" gradientUnits="userSpaceOnUse">
<stop stop-opacity="0.6"/>
<stop offset="0.675464" stop-opacity="0"/>
</linearGradient>
</defs>
</svg>
