<svg width="40" height="40" viewBox="0 0 40 40" fill="none" xmlns="http://www.w3.org/2000/svg">
<circle cx="20" cy="20" r="20" fill="white"/>
<mask id="mask0" style="mask-type:alpha" maskUnits="userSpaceOnUse" x="22" y="23" width="12" height="8">
<path d="M22.1133 23.8951H34V30.0632H22.1133V23.8951Z" fill="white"/>
</mask>
<g mask="url(#mask0)">
<path fill-rule="evenodd" clip-rule="evenodd" d="M31.0272 24.8136L30.9599 24.88C30.5522 25.2734 30.0654 25.5809 29.5301 25.7834L29.503 25.7819C29.0105 25.9645 28.4876 26.0569 27.9603 26.0546C27.1894 26.062 26.4271 25.8955 25.7336 25.5678L25.6915 25.5655L25.5892 25.5126L25.5599 25.4963C24.917 25.154 24.3914 24.6363 24.048 24.007L23.9823 23.895L22.5452 25.3692C22.5452 25.3692 22.2486 26.7881 22.1165 27.4839L22.1136 27.5305L22.1478 27.5648L22.1675 27.5864C23.6057 29.1402 25.6504 30.0348 27.8014 30.0513L27.9155 30.0578L28.0088 30.0629C29.4164 30.0724 30.8035 29.7347 32.0403 29.0818L32.0776 29.0633C32.7588 28.6971 33.3833 28.2394 33.9328 27.7036L34.0003 27.6371L31.0272 24.8136Z" fill="url(#paint0_linear)"/>
</g>
<path fill-rule="evenodd" clip-rule="evenodd" d="M11.1811 17.6184L11.1795 17.6451L11.7459 19.7975L11.8653 19.6135C12.497 18.7198 13.4579 18.1065 14.5421 17.9051L14.5901 17.9078C14.9707 17.8335 15.3593 17.8069 15.7468 17.8285C16.3297 17.8713 16.8963 18.0393 17.4066 18.321L17.4474 18.3442C18.1511 18.7422 18.7719 19.2688 19.2767 19.8958L19.358 20.0018L20.7361 18.1169L21.1892 16.1159L21.1431 16.0804L20.9881 15.9463C20.1029 15.1266 19.0493 14.5054 17.899 14.1252C17.2794 13.9342 16.6361 13.8288 15.9873 13.8121L15.9573 13.8102C14.4956 13.8041 13.0552 14.1562 11.7649 14.835L11.7245 14.8565L11.1278 17.3976L11.1811 17.6184Z" fill="url(#paint1_linear)"/>
<mask id="mask1" style="mask-type:alpha" maskUnits="userSpaceOnUse" x="7" y="9" width="27" height="22">
<path d="M7 9H33.7836V30.0183H7V9Z" fill="white"/>
</mask>
<g mask="url(#mask1)">
<path fill-rule="evenodd" clip-rule="evenodd" d="M23.7327 23.1577L23.735 23.1192C23.744 22.9621 23.7147 22.3446 23.7091 21.9843L23.7146 21.8895C23.7015 20.936 24.0221 20.0079 24.6207 19.2655L24.64 19.2399C24.7266 19.1318 24.8188 19.0302 24.917 18.9289C25.697 18.1377 26.7634 17.6948 27.8744 17.7008C28.0518 17.7006 28.2289 17.7111 28.4052 17.7318L28.4348 17.7335C29.3467 17.8611 30.1927 18.281 30.8458 18.9304L30.9131 18.9997L33.7835 16.1544L33.7161 16.0851C32.2884 14.678 30.4033 13.8292 28.4032 13.6924L28.3736 13.6907C28.1956 13.6803 28.0148 13.6697 27.8341 13.6592C26.6325 13.6388 25.4392 13.8594 24.3245 14.3078C23.5873 14.613 22.9095 15.0456 22.3222 15.5856L22.2907 15.6135L22.255 15.6114L22.2539 15.6293L22.2322 15.6488L22.2007 15.6767C21.9973 15.8738 21.807 16.0843 21.6315 16.3067L21.6304 16.3245L21.1563 18.3253L19.6216 20.4069L19.6104 21.8697C19.5853 23.486 18.6393 24.946 17.1745 25.6297L17.1469 25.6431C16.6122 25.8796 16.0332 25.9999 15.4485 25.9958C13.1434 25.9963 11.2614 24.1532 11.2139 21.8488L11.2042 20.486L11.2094 20.3971L10.4884 17.4667L11.1435 14.7568L11.1104 10.4895L7.00009 9.00004L7.08196 18.4366L7.07951 18.4782L7.10619 21.8378C7.09959 21.9505 7.1137 22.0673 7.11891 22.1806C7.11631 22.2013 7.11508 22.2221 7.11523 22.243C7.2595 24.5493 8.37013 26.6879 10.1741 28.1326L10.2026 28.155C11.6931 29.3562 13.5487 30.0134 15.4632 30.0183L15.7608 30.0146L15.8232 30.0183C17.9267 29.9599 19.6673 29.2941 21.0197 28.0408L21.0449 28.0184C21.24 27.8335 21.4269 27.6391 21.6057 27.4325L21.6216 27.4126L22.0834 25.0601L23.727 23.2049L23.7327 23.1577Z" fill="url(#paint2_linear)"/>
</g>
<defs>
<linearGradient id="paint0_linear" x1="31.3195" y1="23.6417" x2="16.2527" y2="34.4203" gradientUnits="userSpaceOnUse">
<stop stop-color="#68E0AB"/>
<stop offset="0.98076" stop-color="#3BC076"/>
<stop offset="1" stop-color="#37BE72"/>
</linearGradient>
<linearGradient id="paint1_linear" x1="18.9201" y1="12.1945" x2="6.38134" y2="22.8321" gradientUnits="userSpaceOnUse">
<stop stop-color="#68E0AB"/>
<stop offset="0.98076" stop-color="#3BC076"/>
<stop offset="1" stop-color="#37BE72"/>
</linearGradient>
<linearGradient id="paint2_linear" x1="27.7431" y1="-6.49923" x2="-8.01921" y2="32.1907" gradientUnits="userSpaceOnUse">
<stop stop-color="#68E0AB"/>
<stop offset="0.98076" stop-color="#3BC076"/>
<stop offset="1" stop-color="#37BE72"/>
</linearGradient>
</defs>
</svg>
