<svg width="40" height="40" viewBox="0 0 40 40" fill="none" xmlns="http://www.w3.org/2000/svg">
<path d="M20 40C31.0457 40 40 31.0457 40 20C40 8.9543 31.0457 0 20 0C8.9543 0 0 8.9543 0 20C0 31.0457 8.9543 40 20 40Z" fill="white"/>
<path d="M32.4344 23.7908C30.8346 22.8517 28.7758 23.386 27.8353 24.9836L27.7643 25.0961L26.1554 27.8782C26.0978 28.0009 26.031 28.1185 25.9536 28.2283L25.9369 28.2566C25.5431 28.8112 24.9001 29.1747 24.1691 29.1869H25.3989H31.552C32.5456 29.1869 33.262 28.8633 33.652 28.3386L33.8292 27.9852C34.476 26.459 33.9048 24.6529 32.4344 23.7908Z" fill="url(#paint0_linear_326_22)"/>
<path d="M31.552 29.1869H25.3989H16.5347C15.8023 29.1747 15.1569 28.8086 14.7636 28.2501L15.3045 29.1869L18.3814 34.5084C18.898 35.4027 19.5672 35.8664 20.2442 35.9114C20.3156 35.9125 20.3874 35.9125 20.4589 35.9114C21.5936 35.8961 22.7203 35.6407 23.5865 35.1419L31.4684 30.597C32.3027 30.1162 33.0593 29.3132 33.6335 28.3862C33.6552 28.351 33.676 28.3158 33.6979 28.2812C33.319 28.8411 32.5827 29.1869 31.552 29.1869Z" fill="url(#paint1_linear_326_22)"/>
<path d="M18.3815 34.5085L15.3045 29.1869L14.7479 28.2232C14.6738 28.1178 14.6093 28.0056 14.5537 27.8876L11.0252 21.7849C10.914 21.6368 10.8184 21.4765 10.746 21.3023C10.638 21.0422 10.5782 20.7573 10.5782 20.4577C10.5782 20.1576 10.638 19.8724 10.746 19.6122L10.2577 20.4577L7.18165 25.7787C6.66496 26.6701 6.59684 27.4795 6.89407 28.087C6.92972 28.1519 6.96722 28.2158 7.00538 28.2801C7.5855 29.2521 8.37011 30.0981 9.23489 30.597L17.1166 35.1419C17.9827 35.6408 19.1096 35.8961 20.2444 35.9114C19.5672 35.8664 18.8981 35.4027 18.3815 34.5085Z" fill="url(#paint2_linear_326_22)"/>
<path d="M15.3045 11.7279H11.5686H9.15183C8.12137 11.7279 7.38596 12.0719 7.00718 12.6313C6.96809 12.6971 6.92966 12.7633 6.89315 12.83C6.34082 13.8172 6 14.9166 6 15.9131V25.0018C6 25.9987 6.34135 27.0994 6.89408 28.0871C6.59685 27.4795 6.66497 26.6701 7.18165 25.7788L10.2577 20.4577L10.746 19.6122C10.8183 19.439 10.914 19.2779 11.0252 19.1302L14.5551 13.0254L14.7471 12.692L14.765 12.6605C15.1487 12.1173 15.77 11.7575 16.4791 11.7279H15.3045V11.7279Z" fill="url(#paint3_linear_326_22)"/>
<path d="M25.3989 11.7278L22.3221 6.40583C21.8073 5.51491 21.1401 5.05099 20.4655 5.00384C20.3894 5.00238 20.3138 5.00238 20.2373 5.00384C19.1053 5.01995 17.9808 5.27476 17.1164 5.7729L9.23476 10.3174C8.37091 10.8162 7.58769 11.6603 7.00711 12.6313C7.38589 12.0719 8.1213 11.7278 9.15176 11.7278H15.3044H24.2257C24.9328 11.7575 25.552 12.1154 25.9355 12.6559L25.3989 11.7278Z" fill="url(#paint4_linear_326_22)"/>
<path d="M20.2443 35.9114C20.3157 35.9158 20.3875 35.9158 20.459 35.9114C20.3875 35.9125 20.3157 35.9125 20.2443 35.9114Z" fill="url(#paint5_linear_326_22)"/>
<path d="M6.89319 12.83C6.9297 12.7633 6.96813 12.6971 7.00721 12.6313C6.96396 12.6948 6.92606 12.7605 6.89319 12.83Z" fill="url(#paint6_linear_326_22)"/>
<path d="M7.00533 28.2801C6.96723 28.2158 6.92966 28.1519 6.89401 28.087C6.92655 28.1536 6.96399 28.2178 7.00533 28.2801Z" fill="url(#paint7_linear_326_22)"/>
<path d="M20.4656 5.00391C20.3895 4.9987 20.3139 4.9987 20.2374 5.00391C20.3139 5.00239 20.3894 5.00239 20.4656 5.00391Z" fill="url(#paint8_linear_326_22)"/>
<path d="M33.5332 12.3697C32.9722 11.5094 32.2544 10.7703 31.4684 10.3174L23.5865 5.77294C22.7223 5.2748 21.5983 5.02006 20.4655 5.00388C21.1402 5.05103 21.8074 5.51489 22.3222 6.40587L25.3989 11.7279L27.8381 15.9843C28.7821 17.5896 30.8504 18.1262 32.4571 17.1828C34.0638 16.2409 34.6008 14.1757 33.6573 12.5708L33.5332 12.3697Z" fill="url(#paint9_linear_326_22)"/>
<defs>
<linearGradient id="paint0_linear_326_22" x1="29.1311" y1="29.1869" x2="29.1311" y2="23.3277" gradientUnits="userSpaceOnUse">
<stop stop-color="#951F28"/>
<stop offset="1" stop-color="#E9B51C"/>
</linearGradient>
<linearGradient id="paint1_linear_326_22" x1="14.7636" y1="32.0812" x2="33.6979" y2="32.0812" gradientUnits="userSpaceOnUse">
<stop stop-color="#951F28"/>
<stop offset="1" stop-color="#E9B51C"/>
</linearGradient>
<linearGradient id="paint2_linear_326_22" x1="6.71795" y1="27.7618" x2="20.2443" y2="27.7618" gradientUnits="userSpaceOnUse">
<stop stop-color="#951F28"/>
<stop offset="1" stop-color="#E9B51C"/>
</linearGradient>
<linearGradient id="paint3_linear_326_22" x1="3.04239" y1="24.2407" x2="16.0077" y2="11.2573" gradientUnits="userSpaceOnUse">
<stop stop-color="#E9B51C"/>
<stop offset="1" stop-color="#951F28"/>
</linearGradient>
<linearGradient id="paint4_linear_326_22" x1="7.00722" y1="8.82932" x2="25.9355" y2="8.82932" gradientUnits="userSpaceOnUse">
<stop stop-color="#E9B51C"/>
<stop offset="1" stop-color="#951F28"/>
</linearGradient>
<linearGradient id="paint5_linear_326_22" x1="20.2443" y1="35.9131" x2="20.459" y2="35.9131" gradientUnits="userSpaceOnUse">
<stop stop-color="#E9B51C"/>
<stop offset="1" stop-color="#951F28"/>
</linearGradient>
<linearGradient id="paint6_linear_326_22" x1="6.89316" y1="12.7306" x2="7.00719" y2="12.7306" gradientUnits="userSpaceOnUse">
<stop stop-color="#E9B51C"/>
<stop offset="1" stop-color="#951F28"/>
</linearGradient>
<linearGradient id="paint7_linear_326_22" x1="6.89407" y1="28.1836" x2="7.00535" y2="28.1836" gradientUnits="userSpaceOnUse">
<stop stop-color="#E9B51C"/>
<stop offset="1" stop-color="#951F28"/>
</linearGradient>
<linearGradient id="paint8_linear_326_22" x1="20.2374" y1="5.00191" x2="20.4656" y2="5.00191" gradientUnits="userSpaceOnUse">
<stop stop-color="#E9B51C"/>
<stop offset="1" stop-color="#951F28"/>
</linearGradient>
<linearGradient id="paint9_linear_326_22" x1="20.4655" y1="11.326" x2="34.1225" y2="11.326" gradientUnits="userSpaceOnUse">
<stop stop-color="#E9B51C"/>
<stop offset="1" stop-color="#951F28"/>
</linearGradient>
</defs>
</svg>
