<svg width="40" height="40" viewBox="0 0 40 40" fill="none" xmlns="http://www.w3.org/2000/svg">
<g clip-path="url(#clip0_308_34)">
<path d="M20 39.6722C30.8647 39.6722 39.6722 30.8647 39.6722 20C39.6722 9.13533 30.8647 0.327774 20 0.327774C9.13533 0.327774 0.327774 9.13533 0.327774 20C0.327774 30.8647 9.13533 39.6722 20 39.6722Z" fill="#002FA7"/>
<path d="M29.8636 28.2605L29.3592 28.3444H29.321C29.2839 28.3543 29.2463 28.3543 29.2092 28.3636L29.0784 28.3821C22.4636 29.466 16.8673 29.6062 11.9796 28.821C10.6623 28.6062 8.72839 28.242 7.07468 27.5321C5.12345 26.6907 4.01234 25.5512 3.77839 24.1401C3.1895 20.6926 8.30061 17.9271 9.98209 17.021C14.4481 14.6012 19.9512 12.8636 26.7994 11.7049C33.6475 10.5463 39.4216 10.3704 44.4296 11.1821C47.7012 11.7142 52.1092 12.7704 52.6321 15.8623C53.1549 18.9543 49.3438 21.4031 46.4284 22.9821C42.0747 25.3364 36.7494 27.0463 30.1438 28.2043L30.0129 28.2235C29.9759 28.2327 29.9383 28.2327 29.9012 28.242C29.8827 28.2605 29.8728 28.2605 29.8636 28.2605ZM29.2938 28.0753H29.3123L29.8265 27.9821H29.8358C29.8728 27.9728 29.9105 27.9728 29.9481 27.9636L30.0784 27.9451C36.6469 26.7957 41.9438 25.0951 46.279 22.75C52.8938 19.1697 52.4734 16.7241 52.3426 15.9204C51.8006 12.6691 46.2136 11.7629 44.3796 11.4759C39.4 10.6734 33.6629 10.8407 26.8432 11.9987C20.0234 13.1568 14.5592 14.8858 10.1099 17.287C3.49814 20.8642 3.91851 23.3086 4.04938 24.1123C4.60061 27.3636 10.1876 28.2605 12.0191 28.5599C16.8771 29.3444 22.4457 29.2043 29.0321 28.1204L29.1629 28.1018C29.2006 28.0926 29.2376 28.0926 29.2753 28.0833L29.2938 28.0753Z" fill="white"/>
<path d="M29.3778 26.9432C29.2469 26.9617 29.1068 26.9901 28.9574 27.0087C28.6772 27.0556 28.3593 27.1019 28.0136 27.158L27.9766 27.1673C27.8272 27.1864 27.6679 27.2142 27.5 27.2327C27.3506 27.2519 27.1914 27.2796 27.0235 27.2982H26.9957C26.7432 27.3358 26.4722 27.3636 26.2013 27.4012H26.1642L25.8185 27.4383C25.7247 27.4475 25.6222 27.4574 25.5284 27.4759H25.5099C23.3889 27.7093 21.371 27.8494 19.5222 27.8778C16.1593 27.9241 13.4586 27.6161 11.5154 26.9617C9.65618 26.3358 8.46976 25.3827 8.00247 24.1309C7.92229 23.9161 7.86296 23.6941 7.82531 23.4679C7.65679 22.4864 7.9 21.5148 8.54445 20.5901C9.44136 19.3006 11.142 18.0673 13.5988 16.937C15.8975 15.8722 18.8124 14.9099 22.2506 14.0685C24.4272 13.5364 26.1747 13.2185 27.0247 13.0809C27.8846 12.9315 29.6593 12.6605 31.8642 12.4364C34.2938 12.1932 37.8439 11.9691 40.9926 12.2772C43.6926 12.5389 45.7105 13.1463 46.9803 14.0901C47.8679 14.7531 48.4099 15.5753 48.5692 16.5562C48.6074 16.791 48.6229 17.0289 48.6155 17.2667V17.2667C48.5784 18.6025 47.784 19.8827 46.2611 21.0691C44.6451 22.3303 42.1969 23.5167 38.9926 24.5821C37.2173 25.1704 35.2648 25.7031 33.1809 26.1796C33.1103 26.1996 33.0386 26.2152 32.9661 26.2266L32.2469 26.3852C32.0618 26.4228 31.8827 26.4599 31.705 26.4975L31.5272 26.5346C31.4247 26.5531 31.3315 26.5722 31.2284 26.5907C31.1253 26.6093 31.0136 26.6377 30.9013 26.6562L30.7241 26.6932C30.3784 26.7586 30.0605 26.8167 29.7803 26.871C29.6488 26.8963 29.5062 26.9247 29.3778 26.9432ZM26.1451 27.1284H26.192C26.4537 27.1 26.7154 27.063 26.9673 27.0253H26.9957C27.1543 27.0068 27.313 26.979 27.4722 26.9599C27.6315 26.9407 27.7988 26.9136 27.9488 26.8945L27.9858 26.8852C28.3315 26.829 28.6401 26.7827 28.9204 26.7451C29.2192 26.6988 29.4525 26.6611 29.7519 26.6049C30.0321 26.5587 30.3494 26.4932 30.6951 26.4278L30.8729 26.3901C30.9753 26.3716 31.0877 26.3531 31.1908 26.3247C31.284 26.3062 31.3864 26.2877 31.4803 26.2685L31.6574 26.2315C31.8352 26.1938 32.0124 26.1568 32.1994 26.1191L32.9192 25.9605C32.9938 25.942 33.0593 25.9321 33.134 25.9136C35.208 25.4463 37.1513 24.9049 38.9173 24.3253C42.0939 23.2698 44.5136 22.1031 46.1019 20.8593C47.5593 19.7191 48.3161 18.5136 48.3531 17.2624C48.3612 17.0432 48.3457 16.8238 48.3068 16.608C48.1574 15.7037 47.6544 14.9383 46.821 14.321C45.5865 13.4148 43.626 12.8167 40.9723 12.5648C37.8426 12.2654 34.3111 12.4803 31.8982 12.7235C29.6932 12.9383 27.9272 13.2173 27.0772 13.3586C26.2272 13.5 24.4796 13.8259 22.3241 14.3463C18.9512 15.1685 15.971 16.15 13.7191 17.1963C11.3086 18.3074 9.64507 19.5037 8.77655 20.7556C8.17901 21.6154 7.95494 22.5216 8.10432 23.4278C8.14015 23.6385 8.19638 23.8452 8.27222 24.0451C8.71173 25.2222 9.83272 26.1191 11.6173 26.7173C13.5309 27.3617 16.1951 27.6605 19.5303 27.6142C21.3821 27.5858 23.3889 27.4556 25.5006 27.2124H25.5192C25.6163 27.2054 25.713 27.1928 25.8087 27.1747L26.1451 27.1284Z" fill="white"/>
<path d="M18.4568 24.2062L18.429 24.1963H18.4025L18.429 24.458C18.513 24.4488 18.5877 24.4488 18.6716 24.4395C18.8907 24.4227 19.1107 24.4192 19.3302 24.429C19.0349 24.3721 18.7433 24.2976 18.4568 24.2062V24.2062ZM21.5099 24.6525L21.5407 24.6457L21.5099 24.6525ZM21.6136 24.6364H21.6049V24.6525L21.6235 24.6488L21.6136 24.6364ZM48.5587 16.5728C48.3994 15.592 47.8574 14.7697 46.9704 14.1037C45.6994 13.1599 43.6815 12.5531 40.9827 12.2914C37.8346 11.9827 34.284 12.2074 31.8543 12.45C29.6494 12.6741 27.8747 12.9438 27.0148 13.0944C26.1648 13.2346 24.4179 13.5525 22.2407 14.0852C18.8025 14.9259 15.8877 15.8883 13.5895 16.9531C11.1309 18.0864 9.43025 19.321 8.53333 20.6086C7.88889 21.5346 7.64568 22.5056 7.8142 23.4864C7.84264 23.6562 7.88391 23.8235 7.93765 23.987C7.95494 24.0426 7.97407 24.0963 7.99321 24.15L8.03333 24.2518C8.52716 25.4531 9.7 26.3716 11.5062 26.9809C13.45 27.6346 16.15 27.9432 19.513 27.8963H19.5679L19.6056 27.8494C20.0901 27.3364 20.6117 26.8062 21.134 26.3537C21.1444 26.3444 21.1556 26.3358 21.1654 26.3265L21.4556 26.0747H21.0062C18.5117 26.0988 16.5 25.8753 15.0302 25.3957L15.0173 25.392L15.0346 25.3852C16.3253 24.866 17.3951 24.5778 18.3809 24.4667H18.3864C19.1068 24.692 19.9914 24.837 21.0241 24.8988C20.4171 24.8667 19.8132 24.792 19.2167 24.6753C19.108 24.6531 19.0025 24.6296 18.8988 24.6049C18.8556 24.5951 18.813 24.5839 18.7698 24.5735C18.6463 24.5395 18.5259 24.5049 18.4099 24.4685L18.3821 24.4623H18.3728C18.1963 24.4056 18.0278 24.3426 17.8704 24.2772C16.9086 24.4364 15.8494 24.7586 14.5988 25.2858L14.2944 25.4167L14.2747 25.4253H14.2716L14.5988 25.5488C16.0654 26.1 18.1302 26.3802 20.7278 26.371C20.2889 26.7636 19.8685 27.2025 19.4667 27.6228C16.1593 27.6697 13.5247 27.3611 11.6185 26.7259C9.89876 26.1494 8.79506 25.2957 8.32407 24.1802C8.30617 24.1389 8.2895 24.0957 8.27346 24.0537C8.25741 24.0117 8.24012 23.9623 8.22531 23.9154C8.17339 23.7592 8.13336 23.5993 8.10555 23.437C7.95617 22.5309 8.18025 21.6247 8.77839 20.7654C9.64691 19.513 11.3093 18.3173 13.7204 17.2056C15.9722 16.1562 18.9525 15.1784 22.3253 14.3562C24.4858 13.8327 26.2309 13.5056 27.0784 13.3685C27.9259 13.2315 29.6945 12.9481 31.8994 12.7333C34.3068 12.4907 37.8414 12.2753 40.9735 12.5747C43.6278 12.8265 45.5889 13.4247 46.8216 14.3309C47.6531 14.9481 48.158 15.7136 48.3074 16.6197C48.3465 16.8355 48.3622 17.0549 48.3543 17.2741C48.3167 18.5259 47.5599 19.7315 46.1025 20.871C44.5235 22.1055 42.1222 23.2722 38.9741 24.3185C38.4506 24.0475 37.8901 23.7673 37.3296 23.5247C39.7679 22.6648 41.6272 21.7309 42.8605 20.7401L43.1315 20.516L43.0753 20.513L42.779 20.4876C41.0414 20.3753 39.7426 20.4685 38.7049 20.7679L38.6766 20.7772L38.6488 20.7957C38.0414 21.2278 37.2568 21.6457 36.313 22.0302L36.1821 22.0772C35.9296 22.1796 35.6593 22.2827 35.3883 22.3759L35.2198 22.4321C35.2208 22.4219 35.2225 22.4118 35.2247 22.4018C35.2358 22.3364 35.2451 22.271 35.2525 22.2062C35.302 21.832 35.3227 21.4545 35.3142 21.0772C35.3142 21.0154 35.3099 20.9574 35.3062 20.8981C35.3025 20.8389 35.3 20.7747 35.2951 20.7167C35.2901 20.6586 35.2852 20.5932 35.2796 20.5315C35.2741 20.4697 35.2661 20.408 35.258 20.3463C35.2469 20.2648 35.2346 20.1833 35.2204 20.0994C35.2062 20.0154 35.187 19.937 35.171 19.8568C35.1636 19.8154 35.1549 19.7753 35.1457 19.7333C35.0051 19.0955 34.7721 18.4817 34.4543 17.9111C34.3464 17.7164 34.2288 17.5273 34.1019 17.3444C34.063 17.2883 34.0235 17.2315 33.9827 17.1759C33.942 17.1204 33.9136 17.0815 33.8778 17.0358C33.842 16.9901 33.8006 16.937 33.7611 16.8883C33.3227 16.3524 32.807 15.8847 32.2309 15.5006C31.7772 15.1951 31.2877 14.9463 30.7735 14.7599C29.7072 14.3744 28.5628 14.2558 27.4401 14.4142C27.3306 14.4254 27.2218 14.4425 27.1142 14.4654C27.1043 14.4646 27.0943 14.4663 27.0852 14.4704C25.9717 14.6921 24.9293 15.1827 24.0488 15.8994C23.6433 16.2227 23.2787 16.5941 22.963 17.0055L22.9358 17.0395C22.7237 17.3157 22.5322 17.6073 22.363 17.9117C22.3296 17.9735 22.2969 18.0352 22.2661 18.0969C22.2395 18.1451 22.2154 18.1951 22.192 18.2451C22.1685 18.2951 22.1512 18.329 22.1303 18.3722C22.0375 18.5766 21.9551 18.7855 21.8833 18.9981V19.0031C21.8636 19.0599 21.8451 19.1179 21.8259 19.1747C21.8068 19.2315 21.7914 19.2895 21.7747 19.3475C21.7623 19.3914 21.7494 19.4364 21.7383 19.4815C21.737 19.4901 21.735 19.4986 21.7321 19.5068C21.7271 19.5211 21.7229 19.5358 21.7198 19.5506C21.7093 19.5895 21.7 19.6296 21.6907 19.6697C21.6889 19.6743 21.6876 19.6791 21.687 19.6839C21.6875 19.6883 21.6864 19.6927 21.684 19.6963C21.6765 19.7278 21.6704 19.758 21.6636 19.7907C21.6568 19.8235 21.6512 19.8475 21.6457 19.8765C21.634 19.9383 21.6222 20 21.6123 20.058C21.5889 20.1932 21.5685 20.329 21.5506 20.4642C21.5451 20.5099 21.5407 20.5568 21.537 20.6031C21.5315 20.6648 21.5265 20.7265 21.5228 20.7883C21.5051 21.0653 21.5041 21.3432 21.5198 21.6204C21.5259 21.7315 21.534 21.8438 21.5463 21.9549C21.5472 21.9793 21.5497 22.0037 21.5537 22.0278C21.5648 22.1062 21.5759 22.1809 21.587 22.2549C21.5901 22.271 21.592 22.2864 21.5951 22.3018V22.3099L21.6006 22.3475C21.6 22.3506 21.6 22.3537 21.6006 22.3568C21.602 22.3719 21.6043 22.387 21.6074 22.4018C21.6117 22.4346 21.6173 22.4636 21.6241 22.4988C21.6841 22.8206 21.7666 23.1378 21.871 23.4481C22.0102 23.8631 22.1898 24.2634 22.4074 24.6432V24.6432C22.4438 24.7049 22.4827 24.7722 22.5216 24.8376L22.563 24.9049H22.5142L22.1772 24.921H22.1926C22.2722 24.921 22.35 24.921 22.4265 24.9167C22.4574 24.9167 22.4883 24.9167 22.5191 24.9167H22.6426L22.8852 24.9074V24.9043L22.7562 24.7018C22.7426 24.6796 22.7284 24.6568 22.7154 24.6333C22.2921 23.9319 22.0044 23.1571 21.8673 22.3494C21.8482 22.2259 21.8296 22.1154 21.8204 21.9938C21.813 21.9284 21.8062 21.8636 21.8006 21.7981C21.7499 21.2304 21.7754 20.6585 21.8765 20.0975C22.0577 19.042 22.4943 18.0469 23.1482 17.1988C23.2389 17.0839 23.3333 16.971 23.4303 16.8617C23.6698 16.5883 23.9319 16.3353 24.2136 16.1056C25.0601 15.4211 26.0605 14.9529 27.1284 14.7414L27.1556 14.737L27.2963 14.7136L27.4648 14.6852C28.5444 14.5333 29.6447 14.6488 30.6691 15.0216C31.1598 15.1983 31.6271 15.4337 32.0611 15.7228C33.4808 16.663 34.4819 18.1157 34.8549 19.7772C34.8735 19.8895 34.9019 20.0018 34.9204 20.1228C34.9743 20.4317 35.0054 20.744 35.0136 21.0574C35.0235 21.5481 34.9802 22.0384 34.8846 22.5197C34.8826 22.5406 34.8788 22.5612 34.8735 22.5815L34.8266 22.8247L35.0605 22.7494L35.1568 22.7167C35.2611 22.6815 35.3611 22.6451 35.4654 22.6093C35.7457 22.516 36.0074 22.4136 36.2679 22.3105L36.3988 22.2636C37.3457 21.8704 38.1414 21.45 38.7654 21.0105C39.6994 20.7488 40.8766 20.6555 42.3716 20.721L42.3605 20.7296C41.1087 21.6704 39.2624 22.5549 36.8778 23.3648L36.5136 23.4883H36.5173L36.8685 23.6265C36.8789 23.63 36.889 23.6341 36.8988 23.6389C37.5786 23.9119 38.243 24.222 38.8889 24.5679L38.9451 24.5957H38.9827C42.187 23.5309 44.6352 22.3444 46.2512 21.0827C47.7741 19.8963 48.5685 18.6136 48.6056 17.2802C48.6128 17.0435 48.5971 16.8066 48.5587 16.5728V16.5728ZM21.6123 24.6376H21.6049V24.6537L21.6235 24.65L21.6123 24.6376ZM21.542 24.65L21.5093 24.6562L21.542 24.65ZM21.5302 24.9278H21.5432C21.5957 24.9278 21.6488 24.9315 21.7031 24.9321H21.8265C21.7173 24.9321 21.608 24.9259 21.5062 24.921C21.4788 24.9215 21.4514 24.9205 21.4241 24.9179H21.379L21.5302 24.9278ZM18.4012 24.1975L18.4278 24.4593C18.5117 24.45 18.5864 24.45 18.6704 24.4407C18.8895 24.424 19.1095 24.4205 19.329 24.4302C19.0341 24.3729 18.7428 24.2981 18.4568 24.2062L18.429 24.1963L18.4012 24.1975ZM18.4556 24.2074L18.4278 24.1975H18.4012L18.4278 24.4593C18.5117 24.45 18.5864 24.45 18.6704 24.4407C18.8895 24.424 19.1095 24.4205 19.329 24.4302C19.0341 24.3729 18.7428 24.2981 18.4568 24.2062L18.4556 24.2074ZM21.5086 24.6549L21.5395 24.6481L21.5086 24.6549ZM21.6123 24.6389H21.6049V24.6549L21.6235 24.6512L21.6123 24.6389ZM21.613 24.6383H21.6049V24.6543L21.6235 24.6506L21.613 24.6383ZM21.5093 24.6537L21.5401 24.6469L21.5093 24.6537ZM18.4568 24.2062L18.429 24.1963H18.4025L18.429 24.458C18.513 24.4488 18.5877 24.4488 18.6716 24.4395C18.8907 24.4227 19.1107 24.4192 19.3302 24.429C19.0349 24.3721 18.7433 24.2976 18.4568 24.2062V24.2062Z" fill="white"/>
<path d="M18.4568 24.2062L18.429 24.1963H18.4025L18.429 24.458C18.513 24.4488 18.5877 24.4488 18.6716 24.4395C18.8907 24.4227 19.1107 24.4192 19.3302 24.429C19.0349 24.3721 18.7433 24.2976 18.4568 24.2062V24.2062ZM21.5099 24.6525L21.5407 24.6457L21.5099 24.6525ZM21.6136 24.6364H21.6049V24.6525L21.6235 24.6488L21.6136 24.6364ZM48.5587 16.5728C48.3994 15.592 47.8574 14.7697 46.9704 14.1037C45.6994 13.1599 43.6815 12.5531 40.9827 12.2914C37.8346 11.9827 34.284 12.2074 31.8543 12.45C29.6494 12.6741 27.8747 12.9438 27.0148 13.0944C26.1648 13.2346 24.4179 13.5525 22.2407 14.0852C18.8025 14.9259 15.8877 15.8883 13.5895 16.9531C11.1309 18.0864 9.43025 19.321 8.53333 20.6086C7.88889 21.5346 7.64568 22.5056 7.8142 23.4864C7.84264 23.6562 7.88391 23.8235 7.93765 23.987C7.95494 24.0426 7.97407 24.0963 7.99321 24.15L8.03333 24.2518C8.52716 25.4531 9.7 26.3716 11.5062 26.9809C13.45 27.6346 16.15 27.9432 19.513 27.8963H19.5679L19.6056 27.8494C20.0901 27.3364 20.6117 26.8062 21.134 26.3537C21.1444 26.3444 21.1556 26.3358 21.1654 26.3265L21.4556 26.0747H21.0062C18.5117 26.0988 16.5 25.8753 15.0302 25.3957L15.0173 25.392L15.0346 25.3852C16.3253 24.866 17.3951 24.5778 18.3809 24.4667H18.3864C19.1068 24.692 19.9914 24.837 21.0241 24.8988C20.4171 24.8667 19.8132 24.792 19.2167 24.6753C19.108 24.6531 19.0025 24.6296 18.8988 24.6049C18.8556 24.5951 18.813 24.5839 18.7698 24.5735C18.6463 24.5395 18.5259 24.5049 18.4099 24.4685L18.3821 24.4623H18.3728C18.1963 24.4056 18.0278 24.3426 17.8704 24.2772C16.9086 24.4364 15.8494 24.7586 14.5988 25.2858L14.2944 25.4167L14.2747 25.4253H14.2716L14.5988 25.5488C16.0654 26.1 18.1302 26.3802 20.7278 26.371C20.2889 26.7636 19.8685 27.2025 19.4667 27.6228C16.1593 27.6697 13.5247 27.3611 11.6185 26.7259C9.89876 26.1494 8.79506 25.2957 8.32407 24.1802C8.30617 24.1389 8.2895 24.0957 8.27346 24.0537C8.25741 24.0117 8.24012 23.9623 8.22531 23.9154C8.17339 23.7592 8.13336 23.5993 8.10555 23.437C7.95617 22.5309 8.18025 21.6247 8.77839 20.7654C9.64691 19.513 11.3093 18.3173 13.7204 17.2056C15.9722 16.1562 18.9525 15.1784 22.3253 14.3562C24.4858 13.8327 26.2309 13.5056 27.0784 13.3685C27.9259 13.2315 29.6945 12.9481 31.8994 12.7333C34.3068 12.4907 37.8414 12.2753 40.9735 12.5747C43.6278 12.8265 45.5889 13.4247 46.8216 14.3309C47.6531 14.9481 48.158 15.7136 48.3074 16.6197C48.3465 16.8355 48.3622 17.0549 48.3543 17.2741C48.3167 18.5259 47.5599 19.7315 46.1025 20.871C44.5235 22.1055 42.1222 23.2722 38.9741 24.3185C38.4506 24.0475 37.8901 23.7673 37.3296 23.5247C39.7679 22.6648 41.6272 21.7309 42.8605 20.7401L43.1315 20.516L43.0753 20.513L42.779 20.4876C41.0414 20.3753 39.7426 20.4685 38.7049 20.7679L38.6766 20.7772L38.6488 20.7957C38.0414 21.2278 37.2568 21.6457 36.313 22.0302L36.1821 22.0772C35.9296 22.1796 35.6593 22.2827 35.3883 22.3759L35.2198 22.4321C35.2208 22.4219 35.2225 22.4118 35.2247 22.4018C35.2358 22.3364 35.2451 22.271 35.2525 22.2062C35.302 21.832 35.3227 21.4545 35.3142 21.0772C35.3142 21.0154 35.3099 20.9574 35.3062 20.8981C35.3025 20.8389 35.3 20.7747 35.2951 20.7167C35.2901 20.6586 35.2852 20.5932 35.2796 20.5315C35.2741 20.4697 35.2661 20.408 35.258 20.3463C35.2469 20.2648 35.2346 20.1833 35.2204 20.0994C35.2062 20.0154 35.187 19.937 35.171 19.8568C35.1636 19.8154 35.1549 19.7753 35.1457 19.7333C35.0051 19.0955 34.7721 18.4817 34.4543 17.9111C34.3464 17.7164 34.2288 17.5273 34.1019 17.3444C34.063 17.2883 34.0235 17.2315 33.9827 17.1759C33.942 17.1204 33.9136 17.0815 33.8778 17.0358C33.842 16.9901 33.8006 16.937 33.7611 16.8883C33.3227 16.3524 32.807 15.8847 32.2309 15.5006C31.7772 15.1951 31.2877 14.9463 30.7735 14.7599C29.7072 14.3744 28.5628 14.2558 27.4401 14.4142C27.3306 14.4254 27.2218 14.4425 27.1142 14.4654C27.1043 14.4646 27.0943 14.4663 27.0852 14.4704C25.9717 14.6921 24.9293 15.1827 24.0488 15.8994C23.6433 16.2227 23.2787 16.5941 22.963 17.0055L22.9358 17.0395C22.7237 17.3157 22.5322 17.6073 22.363 17.9117C22.3296 17.9735 22.2969 18.0352 22.2661 18.0969C22.2395 18.1451 22.2154 18.1951 22.192 18.2451C22.1685 18.2951 22.1512 18.329 22.1303 18.3722C22.0375 18.5766 21.9551 18.7855 21.8833 18.9981V19.0031C21.8636 19.0599 21.8451 19.1179 21.8259 19.1747C21.8068 19.2315 21.7914 19.2895 21.7747 19.3475C21.7623 19.3914 21.7494 19.4364 21.7383 19.4815C21.737 19.4901 21.735 19.4986 21.7321 19.5068C21.7271 19.5211 21.7229 19.5358 21.7198 19.5506C21.7093 19.5895 21.7 19.6296 21.6907 19.6697C21.6889 19.6743 21.6876 19.6791 21.687 19.6839C21.6875 19.6883 21.6864 19.6927 21.684 19.6963C21.6765 19.7278 21.6704 19.758 21.6636 19.7907C21.6568 19.8235 21.6512 19.8475 21.6457 19.8765C21.634 19.9383 21.6222 20 21.6123 20.058C21.5889 20.1932 21.5685 20.329 21.5506 20.4642C21.5451 20.5099 21.5407 20.5568 21.537 20.6031C21.5315 20.6648 21.5265 20.7265 21.5228 20.7883C21.5051 21.0653 21.5041 21.3432 21.5198 21.6204C21.5259 21.7315 21.534 21.8438 21.5463 21.9549C21.5472 21.9793 21.5497 22.0037 21.5537 22.0278C21.5648 22.1062 21.5759 22.1809 21.587 22.2549C21.5901 22.271 21.592 22.2864 21.5951 22.3018V22.3099L21.6006 22.3475C21.6 22.3506 21.6 22.3537 21.6006 22.3568C21.602 22.3719 21.6043 22.387 21.6074 22.4018C21.6117 22.4346 21.6173 22.4636 21.6241 22.4988C21.6841 22.8206 21.7666 23.1378 21.871 23.4481C22.0102 23.8631 22.1898 24.2634 22.4074 24.6432V24.6432C22.4438 24.7049 22.4827 24.7722 22.5216 24.8376L22.563 24.9049H22.5142L22.1772 24.921H22.1926C22.2722 24.921 22.35 24.921 22.4265 24.9167C22.4574 24.9167 22.4883 24.9167 22.5191 24.9167H22.6426L22.8852 24.9074V24.9043L22.7562 24.7018C22.7426 24.6796 22.7284 24.6568 22.7154 24.6333C22.2921 23.9319 22.0044 23.1571 21.8673 22.3494C21.8482 22.2259 21.8296 22.1154 21.8204 21.9938C21.813 21.9284 21.8062 21.8636 21.8006 21.7981C21.7499 21.2304 21.7754 20.6585 21.8765 20.0975C22.0577 19.042 22.4943 18.0469 23.1482 17.1988C23.2389 17.0839 23.3333 16.971 23.4303 16.8617C23.6698 16.5883 23.9319 16.3353 24.2136 16.1056C25.0601 15.4211 26.0605 14.9529 27.1284 14.7414L27.1556 14.737L27.2963 14.7136L27.4648 14.6852C28.5444 14.5333 29.6447 14.6488 30.6691 15.0216C31.1598 15.1983 31.6271 15.4337 32.0611 15.7228C33.4808 16.663 34.4819 18.1157 34.8549 19.7772C34.8735 19.8895 34.9019 20.0018 34.9204 20.1228C34.9743 20.4317 35.0054 20.744 35.0136 21.0574C35.0235 21.5481 34.9802 22.0384 34.8846 22.5197C34.8826 22.5406 34.8788 22.5612 34.8735 22.5815L34.8266 22.8247L35.0605 22.7494L35.1568 22.7167C35.2611 22.6815 35.3611 22.6451 35.4654 22.6093C35.7457 22.516 36.0074 22.4136 36.2679 22.3105L36.3988 22.2636C37.3457 21.8704 38.1414 21.45 38.7654 21.0105C39.6994 20.7488 40.8766 20.6555 42.3716 20.721L42.3605 20.7296C41.1087 21.6704 39.2624 22.5549 36.8778 23.3648L36.5136 23.4883H36.5173L36.8685 23.6265C36.8789 23.63 36.889 23.6341 36.8988 23.6389C37.5786 23.9119 38.243 24.222 38.8889 24.5679L38.9451 24.5957H38.9827C42.187 23.5309 44.6352 22.3444 46.2512 21.0827C47.7741 19.8963 48.5685 18.6136 48.6056 17.2802C48.6128 17.0435 48.5971 16.8066 48.5587 16.5728V16.5728ZM21.6123 24.6376H21.6049V24.6537L21.6235 24.65L21.6123 24.6376ZM21.542 24.65L21.5093 24.6562L21.542 24.65ZM21.5302 24.9278H21.5432C21.5957 24.9278 21.6488 24.9315 21.7031 24.9321H21.8265C21.7173 24.9321 21.608 24.9259 21.5062 24.921C21.4788 24.9215 21.4514 24.9205 21.4241 24.9179H21.379L21.5302 24.9278ZM18.4012 24.1975L18.4278 24.4593C18.5117 24.45 18.5864 24.45 18.6704 24.4407C18.8895 24.424 19.1095 24.4205 19.329 24.4302C19.0341 24.3729 18.7428 24.2981 18.4568 24.2062L18.429 24.1963L18.4012 24.1975ZM18.4556 24.2074L18.4278 24.1975H18.4012L18.4278 24.4593C18.5117 24.45 18.5864 24.45 18.6704 24.4407C18.8895 24.424 19.1095 24.4205 19.329 24.4302C19.0341 24.3729 18.7428 24.2981 18.4568 24.2062L18.4556 24.2074ZM21.5086 24.6549L21.5395 24.6481L21.5086 24.6549ZM21.5086 24.6549L21.5395 24.6481L21.5086 24.6549ZM18.4568 24.2062L18.429 24.1963H18.4025L18.429 24.458C18.513 24.4488 18.5877 24.4488 18.6716 24.4395C18.8907 24.4227 19.1107 24.4192 19.3302 24.429C19.0349 24.3721 18.7433 24.2976 18.4568 24.2062V24.2062Z" fill="white"/>
<path d="M21.5315 24.6296L21.4827 24.637H21.4722C21.3006 24.6315 21.1315 24.6241 20.9673 24.6136C20.7578 24.6012 20.5549 24.5848 20.3586 24.5642C20.0327 24.5321 19.7253 24.4891 19.4364 24.4352C19.099 24.3752 18.7659 24.2927 18.4395 24.1883L18.4111 24.179H18.3833C18.2037 24.1988 18.0216 24.2247 17.8358 24.2574C16.8901 24.4185 15.8531 24.737 14.6259 25.2451C13.3599 24.7667 12.563 24.0722 12.2525 23.179C12.2358 23.1302 12.2198 23.0809 12.2056 23.0302C12.1914 22.9796 12.1833 22.9438 12.1741 22.9006C12.1617 22.8426 12.1519 22.7858 12.1407 22.7315C12.0099 21.9654 12.2154 21.2086 12.7475 20.4895L12.7852 20.4426C13.5136 19.4895 14.8222 18.5741 16.6907 17.7265C17.7008 17.2741 18.7356 16.879 19.7901 16.5432C20.9432 16.1679 22.2074 15.8154 23.5481 15.4938C24.1444 15.3518 24.6901 15.2259 25.1852 15.1235C25.2093 15.1179 25.2333 15.113 25.258 15.1086C24.8253 15.328 24.4179 15.5942 24.0432 15.9025C23.6339 16.2292 23.2661 16.6048 22.9481 17.021C22.9426 17.0272 22.937 17.0352 22.9315 17.0426C22.842 17.158 22.7568 17.2772 22.6765 17.3981C22.3399 17.8984 22.0713 18.4412 21.8778 19.0123V19.0123C21.858 19.0691 21.8395 19.1272 21.8204 19.1839C21.8012 19.2407 21.7858 19.2988 21.7691 19.3568C21.7617 19.3819 21.7549 19.4078 21.7488 19.4346C21.7438 19.4531 21.7383 19.4716 21.7327 19.4907C21.7315 19.4993 21.7294 19.5078 21.7265 19.516C21.7215 19.5304 21.7174 19.545 21.7142 19.5599C21.7037 19.5988 21.6944 19.6389 21.6852 19.679C21.6833 19.6835 21.6821 19.6883 21.6815 19.6932C21.6819 19.6976 21.6809 19.7019 21.6784 19.7056C21.671 19.737 21.6648 19.7673 21.658 19.8C21.6512 19.8327 21.6457 19.8568 21.6401 19.8858C21.6388 19.8956 21.6368 19.9053 21.634 19.9148C21.6235 19.9623 21.6148 20.0099 21.6068 20.0574C21.5821 20.1951 21.563 20.3339 21.5451 20.4735C21.5395 20.5191 21.5352 20.566 21.5315 20.6123C21.5259 20.6741 21.521 20.7358 21.5173 20.7975C21.4996 21.0746 21.4986 21.3524 21.5142 21.6296C21.521 21.7407 21.5296 21.8518 21.5414 21.9636C21.542 21.9843 21.5443 22.0049 21.5481 22.0253C21.5593 22.1068 21.5716 22.1839 21.5827 22.2605C21.5819 22.2692 21.5836 22.278 21.5877 22.2858C21.593 22.3241 21.5986 22.3617 21.6043 22.3988C21.6173 22.4821 21.6321 22.5654 21.65 22.6457C21.6508 22.6538 21.6523 22.6618 21.6543 22.6697C21.6648 22.716 21.6753 22.7617 21.6852 22.8062C21.7278 22.9846 21.7741 23.1531 21.8247 23.3136C21.8377 23.3574 21.8519 23.4006 21.8661 23.4438C21.8802 23.487 21.9012 23.5463 21.9198 23.5975C21.9383 23.6488 21.9574 23.7006 21.9778 23.7518C22.0179 23.8537 22.0599 23.9556 22.1049 24.0562C22.1247 24.0994 22.1432 24.1426 22.1636 24.1846C22.184 24.2265 22.2037 24.2679 22.2253 24.308C22.2813 24.4228 22.3418 24.5356 22.4068 24.6463C22.4432 24.7111 22.4821 24.7753 22.521 24.8407L22.5623 24.908H22.5136L22.1765 24.9241H22.192C22.2716 24.9241 22.3494 24.9241 22.4259 24.9197H22.6593L22.9025 24.9105L22.7827 24.708C22.7685 24.6858 22.7543 24.663 22.7407 24.6395C22.3177 23.9345 22.0304 23.1565 21.8938 22.3457C21.8753 22.2222 21.8562 22.1117 21.8469 21.9901C21.8389 21.9191 21.8315 21.8481 21.8253 21.7772C21.7774 21.2151 21.8035 20.6491 21.9031 20.0938C22.0847 19.0393 22.521 18.0451 23.1741 17.1975C23.2438 17.1086 23.3161 17.0216 23.3895 16.9358C24.3592 15.7979 25.6871 15.0237 27.1549 14.7401V14.7358L27.1099 14.4741V14.4691C26.9753 14.4926 26.8123 14.5216 26.6228 14.5562C25.9025 14.6889 24.8056 14.9056 23.5031 15.2167C20.7661 15.871 18.4488 16.6278 16.5988 17.4685C14.721 18.3278 13.3753 19.2531 12.6185 20.2339L12.5815 20.2809C11.9741 21.0833 11.7407 21.9247 11.8901 22.7846C11.8994 22.8426 11.9117 22.8975 11.9247 22.9525C11.9377 23.0074 11.9506 23.0574 11.9648 23.1117C11.9759 23.1506 11.9883 23.1901 12.0012 23.229C12.3037 24.1549 13.0679 24.8839 14.2741 25.4006C14.2808 25.4043 14.2878 25.4074 14.2951 25.4099C14.3932 25.4518 14.4951 25.492 14.5994 25.5333L14.6556 25.5518L14.7025 25.5333C14.8142 25.4864 14.9247 25.4407 15.0327 25.3969L15.0506 25.3901C16.3346 24.8747 17.3963 24.5821 18.3889 24.4697H18.4019C18.521 24.5074 18.6438 24.542 18.7722 24.5747C18.6488 24.5407 18.5284 24.5062 18.4123 24.4697L18.3846 24.4636H18.3753C18.1988 24.4068 18.0302 24.3438 17.8728 24.2784C18.0531 24.2475 18.2298 24.2224 18.4031 24.2031L18.4296 24.4648C18.5136 24.4556 18.5883 24.4556 18.6722 24.4463C18.8914 24.4295 19.1113 24.426 19.3309 24.4358C19.7154 24.5105 20.1036 24.5651 20.4938 24.5994C20.6562 24.6154 20.8241 24.6278 20.9963 24.6377C21.1685 24.6475 21.3327 24.6556 21.5062 24.6611H21.5154L21.5463 24.6543L21.5821 24.65L21.6093 24.6451V24.6611L21.6278 24.6574V24.6611H21.7284C21.8802 24.6611 22.0315 24.6691 22.1765 24.6691H22.4074L22.4019 24.6599H22.1549C22.0117 24.6599 21.8623 24.6531 21.7111 24.6512H21.6494L21.6222 24.6457H21.6049L21.5315 24.6296ZM21.5432 24.9383L21.6994 24.9438H21.8228C21.7136 24.9438 21.6043 24.9377 21.5025 24.9327C21.4751 24.9332 21.4477 24.9322 21.4204 24.9296H21.3969L21.5432 24.9383ZM21.5241 24.6401L21.5426 24.6463L21.5241 24.6401ZM22.3944 24.666H22.1475C22.0043 24.666 21.8549 24.6593 21.7037 24.6574H21.642L21.6148 24.6518H21.5963V24.6704L21.6148 24.6667V24.6704H21.7179C21.8698 24.6704 22.021 24.6784 22.1661 24.6784H22.4074L22.3944 24.666Z" fill="white"/>
<path d="M34.8432 22.8321L34.8901 22.5895C34.9932 22.0886 35.0402 21.5779 35.0302 21.0666C35.0222 20.7533 34.9914 20.441 34.9383 20.1321C34.9197 20.0086 34.8913 19.8988 34.8728 19.7864C34.4998 18.125 33.4987 16.6722 32.079 15.7321C31.645 15.443 31.1776 15.2075 30.687 15.0309C29.6626 14.6581 28.5623 14.5426 27.4827 14.6944L27.4358 14.4241C28.071 14.321 29.3981 14.1154 31.0778 13.9568C32.9741 13.7716 35.7586 13.6019 38.2623 13.8259H38.2808C40.374 14.0111 41.9623 14.4519 43.0179 15.134L43.0648 15.1617C43.8963 15.713 44.3913 16.4136 44.5314 17.2642C44.5526 17.3877 44.5652 17.5124 44.5691 17.6376C44.6061 18.7123 44.0271 19.7586 42.8407 20.7302L42.7944 20.7679H42.7382C41.0753 20.6648 39.7753 20.7487 38.7673 21.0383C38.1413 21.4778 37.3475 21.8981 36.3944 22.2907L36.2636 22.337C36.0018 22.4401 35.7407 22.5426 35.4611 22.6364C35.3308 22.6827 35.2 22.7296 35.0599 22.7765L34.8432 22.8321ZM29.3778 14.4049C29.8523 14.4726 30.3187 14.5885 30.7697 14.7506C31.2842 14.937 31.7738 15.1858 32.2278 15.4914C33.15 16.1063 33.9119 16.9328 34.45 17.9018C34.7675 18.4723 35.0004 19.0859 35.1413 19.7234C35.1691 19.8469 35.1883 19.9667 35.216 20.0883C35.2697 20.4087 35.3006 20.7326 35.3086 21.0574C35.3193 21.5107 35.2881 21.9641 35.2154 22.4117L35.3833 22.3561C35.6543 22.2623 35.9253 22.1599 36.1778 22.0568L36.3086 22.0105C37.2518 21.6271 38.037 21.208 38.6444 20.7759L38.6722 20.7568L38.7 20.7475C39.7278 20.4487 41.008 20.3648 42.7179 20.4673C43.8012 19.5611 44.3339 18.608 44.2969 17.6364C44.293 17.5204 44.2804 17.4049 44.2592 17.2907C44.1284 16.5339 43.6895 15.8988 42.9512 15.3944L42.9142 15.3661C41.9049 14.7031 40.3444 14.2728 38.2796 14.0772H38.2611C35.7759 13.8525 33.0012 14.021 31.1043 14.2074C30.471 14.2741 29.892 14.3395 29.3778 14.4049Z" fill="white"/>
<path d="M21.6228 24.6451V24.6506L21.65 24.6451H21.6228ZM22.4018 24.6543H22.1549C22.0117 24.6543 21.8623 24.6475 21.7111 24.6457L21.7253 24.6556C21.8771 24.6556 22.0284 24.6636 22.1734 24.6636H22.4074L22.4018 24.6543ZM21.55 24.6346L21.4883 24.6438H21.4815C21.3099 24.6383 21.1426 24.6309 20.979 24.6204C20.7907 24.6099 20.6086 24.5963 20.4315 24.5784C20.0516 24.5426 19.6969 24.4928 19.3673 24.429C19.0539 24.3709 18.7447 24.2928 18.4414 24.1951L18.413 24.1858H18.4049L18.3852 24.179C17.4105 23.8549 16.7494 23.3617 16.4167 22.7074C16.384 22.6454 16.3549 22.5815 16.3296 22.5161C16.3167 22.4833 16.3037 22.45 16.2914 22.4154C16.2507 22.2991 16.2197 22.1795 16.1988 22.058C16.1148 21.6099 16.2642 21.1519 16.6383 20.6846C16.8994 20.3531 17.2735 20.0198 17.7543 19.684C18.3149 19.3037 18.9036 18.9667 19.5154 18.6759C20.5344 18.1873 21.5827 17.7622 22.6543 17.4031L22.6747 17.3957C22.5599 17.5667 22.4525 17.742 22.3543 17.9222C22.321 17.984 22.2883 18.0457 22.2574 18.1074C22.2309 18.1556 22.2068 18.2056 22.1833 18.2556C22.1599 18.3056 22.1426 18.3395 22.1216 18.3827C22.0289 18.5871 21.9465 18.796 21.8747 19.0086V19.0123C21.8549 19.0691 21.8364 19.1272 21.8173 19.184C21.7981 19.2407 21.7827 19.2988 21.766 19.3568C21.7537 19.4006 21.7407 19.4457 21.7296 19.4907C21.7284 19.4994 21.7263 19.5078 21.7234 19.5161C21.7184 19.5304 21.7143 19.545 21.7111 19.5599C21.7006 19.5988 21.6913 19.6389 21.6821 19.679C21.6802 19.6836 21.679 19.6883 21.6784 19.6932C21.6788 19.6976 21.6778 19.7019 21.6753 19.7056C21.6679 19.737 21.6617 19.7673 21.6549 19.8C21.6481 19.8327 21.6383 19.8765 21.6309 19.9148C21.6234 19.9531 21.6117 20.0099 21.6037 20.0574C21.579 20.1951 21.5599 20.334 21.542 20.4735C21.5364 20.5191 21.5321 20.5661 21.5284 20.6124C21.5228 20.6741 21.5179 20.7358 21.5142 20.7975C21.4975 21.0747 21.4975 21.3525 21.5142 21.6296C21.521 21.7407 21.5296 21.8519 21.5413 21.9636C21.542 21.9843 21.5443 22.0049 21.5481 22.0253C21.5592 22.1068 21.5716 22.184 21.5827 22.2605C21.5819 22.2692 21.5836 22.278 21.5876 22.2858C21.593 22.3241 21.5985 22.3617 21.6043 22.3988C21.6173 22.4821 21.6321 22.5654 21.65 22.6457C21.6508 22.6538 21.6523 22.6619 21.6543 22.6698C21.6648 22.7161 21.6753 22.7617 21.6852 22.8062C21.7278 22.9846 21.7741 23.1531 21.8247 23.3136C21.8376 23.3574 21.8518 23.4006 21.866 23.4438C21.8802 23.487 21.9012 23.5463 21.9197 23.5975C21.9383 23.6488 21.9574 23.7006 21.9778 23.7519C22.0179 23.8537 22.0599 23.9556 22.1049 24.0562C22.1247 24.0994 22.1432 24.1426 22.1636 24.1846C22.1839 24.2265 22.2037 24.2679 22.2253 24.308C22.2817 24.4228 22.3422 24.5356 22.4068 24.6463C22.4432 24.708 22.4821 24.7753 22.521 24.8407L22.5623 24.908H22.5136L22.1765 24.9241H22.192C22.2716 24.9241 22.3494 24.9241 22.4259 24.9198H22.5173C22.5191 24.9191 22.521 24.9191 22.5228 24.9198H22.6543L22.8975 24.9105V24.9074L22.787 24.7142C22.7704 24.6883 22.7543 24.6617 22.7395 24.6358C22.4975 24.2331 22.3005 23.805 22.1518 23.3593C22.0401 23.0306 21.9556 22.6932 21.8994 22.3506C21.8809 22.2272 21.8623 22.1167 21.8525 21.9957C21.7779 21.3641 21.7968 20.7249 21.9086 20.0988C22.0902 19.0443 22.5265 18.05 23.1796 17.2025L23.3858 16.9315L23.4475 16.8475L23.421 16.8562L23.0228 16.992L22.9568 17.0142L22.9463 17.0173L22.9241 17.0247C22.2656 17.2432 21.6483 17.4658 21.0722 17.6926C20.4685 17.9309 19.913 18.1739 19.4055 18.4216C17.9858 19.1037 16.9765 19.8043 16.4253 20.5049C16.0049 21.0377 15.8364 21.579 15.9315 22.1025C15.9513 22.2067 15.9771 22.3098 16.0086 22.4111C16.029 22.4807 16.0531 22.5491 16.0809 22.6161C16.092 22.6438 16.1043 22.6716 16.1161 22.7C16.4105 23.3648 16.9839 23.8852 17.8315 24.2543L17.8444 24.2599L17.866 24.2698C18.0463 24.2389 18.223 24.2138 18.3963 24.1944L18.4228 24.4562C18.5068 24.4469 18.5815 24.4469 18.6654 24.4377C18.8846 24.4209 19.1045 24.4174 19.3241 24.4272C19.7076 24.5018 20.0947 24.5564 20.4839 24.5907C20.6463 24.6068 20.8142 24.6191 20.9864 24.629C21.1586 24.6389 21.3228 24.6469 21.4963 24.6525H21.5055L21.5364 24.6457L21.5722 24.6414L21.5994 24.6364L21.55 24.6346ZM22.4018 24.6617L22.3963 24.6525H22.1494C22.0062 24.6525 21.8568 24.6457 21.7055 24.6438L21.7197 24.6537C21.8716 24.6537 22.0228 24.6617 22.1679 24.6617H22.4018ZM21.6173 24.6488L21.6444 24.6432H21.6173V24.6488ZM21.5432 24.9265H21.5469L21.7031 24.9321H21.8265C21.7173 24.9321 21.608 24.9259 21.5062 24.921C21.4788 24.9215 21.4513 24.9205 21.4241 24.9179H21.4006L21.5432 24.9265ZM22.3981 24.6543H22.1512C22.008 24.6543 21.8586 24.6475 21.7074 24.6457H21.6049V24.6549L21.6234 24.6512V24.6549H21.7284C21.8802 24.6549 22.0315 24.663 22.1765 24.663H22.4074L22.3981 24.6543Z" fill="white"/>
<path d="M34.8432 22.8321L34.8901 22.5895C34.9932 22.0886 35.0402 21.5779 35.0302 21.0666C35.0222 20.7533 34.9914 20.441 34.9383 20.1321C34.9197 20.0086 34.8914 19.8987 34.8728 19.7864C34.4998 18.125 33.4987 16.6722 32.079 15.7321L31.7086 15.4796L32.1568 15.4704C33.4267 15.45 34.6967 15.5061 35.9599 15.6383C37.529 15.8234 38.7062 16.1426 39.4728 16.6099C40.0704 16.9648 40.416 17.4123 40.5 17.9364C40.5279 18.1156 40.5375 18.2972 40.5284 18.4784C40.4815 19.3845 39.9025 20.2352 38.8092 21.0092L38.7815 21.0277C38.1642 21.4672 37.3617 21.8784 36.4173 22.2703L36.2864 22.3172C36.0253 22.4203 35.7636 22.5228 35.4839 22.616C35.3531 22.6629 35.2222 22.7098 35.0821 22.7561L34.8432 22.8321ZM32.5827 15.7407C33.3494 16.3228 33.9858 17.0587 34.4512 17.9012C34.7688 18.4717 35.0017 19.0853 35.1426 19.7228C35.1704 19.8463 35.1895 19.966 35.2173 20.0876C35.2705 20.4083 35.301 20.7324 35.3086 21.0574C35.3193 21.5107 35.2881 21.9641 35.2154 22.4117L35.3833 22.3561C35.6543 22.2623 35.9253 22.1598 36.1778 22.0568L36.3086 22.0105C37.2518 21.6271 38.037 21.208 38.6444 20.7759L38.6722 20.7568C39.6722 20.0376 40.2043 19.2623 40.242 18.4586C40.2513 18.2992 40.2418 18.1392 40.2136 17.9821C40.1389 17.5432 39.8432 17.1691 39.3167 16.8518C38.5883 16.4123 37.4481 16.1043 35.916 15.9173C34.8091 15.7967 33.6962 15.7378 32.5827 15.7407V15.7407Z" fill="white"/>
<path d="M22.4018 24.6543H22.1549C22.0117 24.6543 21.8623 24.6475 21.7111 24.6457L21.7253 24.6556C21.8771 24.6556 22.0284 24.6636 22.1734 24.6636H22.4074L22.4018 24.6543ZM22.9012 24.913L22.7907 24.7198C22.774 24.6938 22.758 24.6673 22.7432 24.6414C22.5012 24.2386 22.3042 23.8105 22.1555 23.3648C22.0438 23.0361 21.9593 22.6987 21.9031 22.3562C21.8846 22.2327 21.866 22.1222 21.8562 22.0012L21.8284 21.7765H21.8253L21.7994 21.7938L21.6413 21.8963C21.608 21.9185 21.5741 21.9401 21.5413 21.9629L21.5358 21.9666C21.2955 22.1282 21.0707 22.3117 20.8642 22.5148C20.5167 22.8623 20.3475 23.2099 20.358 23.5414V23.5895C20.3598 23.6686 20.3723 23.7471 20.3951 23.8228C20.4019 23.8481 20.4105 23.8735 20.4185 23.8988C20.4775 24.068 20.5694 24.2239 20.6889 24.3574C20.7716 24.4512 20.8637 24.5365 20.9636 24.6117C20.9674 24.6155 20.9717 24.6186 20.9765 24.621L20.9876 24.6303C21.1537 24.6407 21.3241 24.6482 21.4975 24.6537H21.5049L21.4864 24.6438L21.4685 24.6358C21.4631 24.6321 21.4573 24.629 21.4512 24.6266L21.4136 24.5982H21.4043C21.3765 24.5833 21.3494 24.5673 21.3222 24.5506C21.1255 24.441 20.9531 24.2925 20.8154 24.1142C20.7374 24.0104 20.6803 23.8923 20.6475 23.7667C20.6438 23.7426 20.6389 23.7154 20.6352 23.6883C20.6315 23.6611 20.6253 23.6167 20.6198 23.5796C20.5914 23.3185 20.7432 23.0284 21.0401 22.7204C21.2049 22.5539 21.3839 22.4023 21.5753 22.2673V22.2673C21.5741 22.2763 21.5741 22.2854 21.5753 22.2944C21.5747 22.302 21.5747 22.3097 21.5753 22.3173V22.3253L21.5809 22.3629C21.5802 22.366 21.5802 22.3691 21.5809 22.3722C21.5821 22.3841 21.5844 22.3959 21.5876 22.4074C21.6006 22.4907 21.6154 22.5741 21.6333 22.6543C21.6342 22.6624 21.6356 22.6705 21.6376 22.6784C21.6481 22.7247 21.6586 22.7704 21.6685 22.8148C21.7111 22.9932 21.7574 23.1617 21.808 23.3222C21.821 23.366 21.8352 23.4093 21.8494 23.4525C21.8636 23.4957 21.8846 23.5549 21.9031 23.6062C21.9216 23.6574 21.9407 23.7093 21.9611 23.7605C22.0012 23.8623 22.0432 23.9642 22.0883 24.0648C22.108 24.108 22.1265 24.1512 22.1469 24.1932C22.1673 24.2352 22.187 24.2765 22.2086 24.3167C22.265 24.4315 22.3255 24.5442 22.3901 24.6549C22.4265 24.7167 22.4654 24.784 22.5043 24.8494L22.5457 24.9167H22.4969L22.1599 24.9327H22.1753C22.2549 24.9327 22.3327 24.9327 22.4092 24.9284H22.6426L22.8858 24.9191L22.9012 24.913ZM22.4074 24.6661L22.4018 24.6568H22.1549C22.0117 24.6568 21.8623 24.65 21.7111 24.6482L21.7253 24.658C21.8771 24.658 22.0284 24.6661 22.1734 24.6661H22.4074ZM22.4018 24.6568H22.1549C22.0117 24.6568 21.8623 24.65 21.7111 24.6482H21.6494L21.6222 24.6537V24.6574H21.7284C21.8802 24.6574 22.0315 24.6654 22.1765 24.6654H22.4074L22.4018 24.6568Z" fill="white"/>
<path d="M34.8432 22.8321L34.8901 22.5895C34.9932 22.0886 35.0402 21.5779 35.0302 21.0667C35.0222 20.7533 34.9914 20.441 34.9383 20.1321C34.9198 20.0086 34.8914 19.8988 34.8728 19.7864L34.8259 19.5623L35.05 19.6185C35.351 19.6895 35.6443 19.7896 35.9259 19.9173C36.4308 20.1512 36.7284 20.45 36.8135 20.7957C36.8228 20.8426 36.8321 20.8889 36.8413 20.945C36.9068 21.4031 36.7389 21.8512 36.3278 22.2808L36.3092 22.3L36.2808 22.3092C36.0197 22.4117 35.758 22.5148 35.4784 22.608C35.3475 22.6549 35.2167 22.7018 35.0765 22.7481L34.8432 22.8321ZM35.1895 19.9457L35.2173 20.0858C35.2705 20.4071 35.301 20.7318 35.3086 21.0574C35.3193 21.5107 35.2881 21.9641 35.2154 22.4117L35.3833 22.3561C35.645 22.2623 35.8975 22.171 36.1494 22.066C36.4765 21.7018 36.6166 21.3376 36.5703 20.9827C36.5605 20.9451 36.5605 20.908 36.5512 20.8592C36.4858 20.5975 36.2339 20.3654 35.8105 20.1679C35.6092 20.0787 35.4017 20.0044 35.1895 19.9457Z" fill="white"/>
<path d="M40.6642 25.4482C40.2438 25.271 39.7383 25.0093 39.2068 24.7383L38.8982 24.5796L39.029 24.3364L39.3377 24.4957C39.8698 24.7667 40.3654 25.0278 40.7765 25.1963L40.6642 25.4482Z" fill="white"/>
<path d="M36.4414 22.2438L36.2636 22.029C36.9544 21.4653 37.7475 21.0402 38.5994 20.7771C38.6279 20.7692 38.6559 20.7598 38.6833 20.7487L38.7488 21.0197C38.7303 21.029 38.7019 21.029 38.6833 21.0382C37.8663 21.2942 37.1054 21.7033 36.4414 22.2438V22.2438Z" fill="white"/>
<path d="M35.5352 22.571L35.3086 22.4025C35.7852 21.7852 36.1963 21.3 36.5889 20.8704C37.7846 19.5741 38.9617 18.7685 40.2982 18.3395L40.3259 18.3302C41.4661 17.9661 42.8019 17.6858 44.4086 17.4895C45.7667 17.3216 47.1463 17.2185 48.4728 17.1253L48.613 17.116C49.971 17.0222 51.2383 16.9309 52.4531 16.7704L52.4901 17.0506C51.2667 17.2093 49.9864 17.3025 48.6315 17.3963L48.4914 17.4056C47.1648 17.4988 45.7914 17.6019 44.437 17.7698C42.8488 17.9661 41.5216 18.237 40.4006 18.6012L40.3728 18.6105C39.0926 19.0216 37.9531 19.8068 36.7852 21.0679C36.413 21.4778 36.0111 21.9636 35.5352 22.571Z" fill="white"/>
<path d="M35.2827 21.1414L35.0488 20.992C35.3012 20.5994 35.5253 20.263 35.7407 19.9642C36.8617 18.4037 37.9735 17.3481 39.263 16.6383L39.2815 16.629C39.298 16.6211 39.3137 16.6116 39.3284 16.6006C40.3093 16.0586 41.4957 15.5821 42.9346 15.1247H42.9438C44.1679 14.7413 45.3914 14.4333 46.8586 14.0685L46.9426 14.05C48.1475 13.7512 49.2883 13.471 50.3716 13.1438L50.4556 13.4055C49.3716 13.7327 48.2228 14.0228 47.0173 14.321L46.9333 14.3395C45.4667 14.7043 44.2426 15.0123 43.0185 15.3957H43.0093C41.5895 15.8438 40.421 16.3216 39.4494 16.8531C39.4309 16.8623 39.4216 16.8716 39.4123 16.8716L39.3932 16.8809C38.1506 17.5722 37.058 18.6 35.9648 20.1321C35.7593 20.4222 35.5352 20.758 35.2827 21.1414Z" fill="white"/>
<path d="M34.4512 18.0302L34.208 17.8901C34.6212 17.1463 35.1198 16.4533 35.6938 15.8253C35.7407 15.7784 35.787 15.7222 35.8339 15.6759C36.4413 15.05 37.2166 14.4413 38.1882 13.8241L38.216 13.8055C39.0666 13.2654 39.9821 12.7778 40.9166 12.2839L41.0567 12.2086C41.8135 11.8074 42.5327 11.4333 43.1962 11.0506L43.3364 11.2932C42.6635 11.6858 41.9438 12.0592 41.187 12.4611L41.0493 12.5364C40.1061 13.0302 39.1901 13.5173 38.3401 14.0592L38.3123 14.0784C37.3592 14.6759 36.6117 15.2648 36.0234 15.8722L35.8833 16.0123C35.3402 16.6358 34.8604 17.3117 34.4512 18.0302V18.0302Z" fill="white"/>
<path d="M30.8543 14.9383L30.5926 14.8358C30.6951 14.5833 30.8167 14.3309 30.963 14.0136C31.2154 13.4994 31.4957 12.9858 31.7574 12.5093L31.8506 12.35C32.0846 11.9179 32.3364 11.4815 32.5512 11.0537L32.8037 11.1772C32.5889 11.6093 32.3364 12.0556 32.1031 12.4852L32.0093 12.6445C31.7481 13.121 31.4679 13.6253 31.2154 14.1389C31.0691 14.4445 30.9475 14.6945 30.8543 14.9383Z" fill="white"/>
<path d="M24.0339 16.0963C23.8488 15.8815 23.6414 15.6759 23.4167 15.4512C23.0333 15.0685 22.6315 14.7136 22.1821 14.3117L22.0586 14.2086C21.666 13.8537 21.2926 13.5296 20.9377 13.1815L21.1339 12.9852C21.4796 13.3216 21.8531 13.6574 22.2451 14.0031L22.3685 14.1062C22.8167 14.508 23.2185 14.8722 23.6111 15.2556C23.8352 15.4796 24.0432 15.6944 24.237 15.9093L24.0339 16.0963Z" fill="white"/>
<path d="M38.7654 21.0105C38.1395 21.45 37.3457 21.8703 36.392 22.2623L36.2611 22.3092C36 22.4123 35.7383 22.5148 35.4586 22.608C35.3574 22.6438 35.2574 22.6802 35.15 22.7154C35.1179 22.7271 35.0883 22.737 35.0537 22.7481L34.8197 22.8234L34.8667 22.5802C34.8704 22.5598 34.8753 22.5401 34.8778 22.5185C34.5901 22.6135 34.2784 22.7086 33.942 22.8123C33.3438 22.9901 32.6994 23.158 31.9889 23.3265C31.2883 23.4944 30.5407 23.6537 29.7747 23.7938C29.429 23.8592 29.1204 23.9152 28.8488 23.9617C28.587 23.9993 28.2697 24.0549 27.9142 24.1111C27.1117 24.2419 26.3914 24.345 25.7093 24.4197C24.9809 24.5037 24.2895 24.5691 23.6352 24.6049C23.337 24.6222 23.0309 24.6314 22.7377 24.6389H22.7068C22.7197 24.6623 22.7339 24.6852 22.7475 24.7074L22.8765 24.9098H22.9012C23.0759 24.9055 23.2488 24.8981 23.4197 24.8895L23.679 24.8753C24.3333 24.8382 25.0339 24.7728 25.7617 24.6901C26.4438 24.6154 27.163 24.5123 27.9759 24.3814C28.1265 24.3617 28.2706 24.3411 28.408 24.3197L28.6432 24.2808L28.7284 24.2654L28.9136 24.2339C29.1846 24.187 29.5018 24.1308 29.8475 24.066C30.6235 23.9259 31.3704 23.7666 32.0809 23.5987C32.3975 23.5247 32.6981 23.4493 32.9907 23.3716L33.0068 23.3679C33.371 23.2716 33.7167 23.1734 34.0518 23.0753C34.4167 22.9728 34.7525 22.8605 35.0704 22.758L35.1537 22.729C35.263 22.6926 35.3673 22.6549 35.4722 22.6179C35.7525 22.524 36.0142 22.4216 36.2747 22.3185L36.4055 22.2722C37.3586 21.8796 38.1531 21.4592 38.779 21.0197C39.7086 20.7592 40.8778 20.666 42.3648 20.7296L42.3759 20.721C40.8784 20.6555 39.7012 20.7487 38.7654 21.0105ZM21.55 24.6345L21.4883 24.6438H21.4815C21.3099 24.6382 21.1426 24.6308 20.979 24.6203C20.7907 24.6098 20.6086 24.5963 20.4315 24.5784C20.0516 24.5426 19.6969 24.4928 19.3673 24.429C19.054 24.3709 18.7447 24.2927 18.4414 24.195L18.413 24.1858H18.3852C18.2105 24.2055 18.0327 24.2296 17.8519 24.2605C16.8914 24.4216 15.8339 24.7426 14.5839 25.2697L14.2753 25.4006L14.2549 25.4098L14.2765 25.4185L14.5852 25.5314C16.1284 26.1105 18.313 26.3907 21.0877 26.3537H21.1401C21.9475 26.3438 22.8173 26.3074 23.713 26.2426L23.8722 26.2333C23.9278 26.224 23.9957 26.224 24.0574 26.2148L24.1321 26.2055C24.5062 26.1771 24.8728 26.1493 25.2253 26.1117C25.4401 26.0932 25.6457 26.0654 25.8426 26.0463L26.2444 26C26.4222 25.9808 26.5994 25.9531 26.7679 25.9345L26.8142 25.9247C27.3747 25.8596 27.9167 25.7849 28.4401 25.7006C28.7204 25.6635 28.9537 25.6259 29.15 25.5889C29.3463 25.5518 29.5889 25.5142 29.8228 25.458C30.3741 25.3549 30.916 25.2432 31.458 25.1216C31.6432 25.0839 31.8315 25.0469 32.0278 24.9981L32.4105 24.9049C32.5883 24.858 32.766 24.8203 32.9525 24.774C33.2889 24.6993 33.6315 24.6055 33.9895 24.5123L34.2043 24.4561C34.2889 24.4376 34.3636 24.4098 34.4475 24.3907L34.4753 24.3814C35.3222 24.1426 36.142 23.8938 36.9068 23.637C36.9185 23.6321 36.9302 23.6284 36.942 23.6247H36.9512C39.5765 22.737 41.5481 21.7561 42.8278 20.7098L43.0802 20.5012L43.0988 20.4858L42.7438 20.4666C41.0062 20.3549 39.7074 20.4481 38.6697 20.7469L38.642 20.7568L38.6136 20.7753C38.0068 21.2074 37.2216 21.6253 36.2778 22.0098L36.1475 22.0561C35.8951 22.1592 35.6241 22.2617 35.3531 22.3555L35.2296 22.4H35.2259C35.1376 22.4308 35.0512 22.4617 34.963 22.4938L34.8901 22.5172C34.6025 22.6123 34.2907 22.7074 33.9543 22.8111C33.3562 22.9889 32.7117 23.1568 32.0012 23.3253C31.3006 23.4932 30.5531 23.6524 29.787 23.7926C29.4414 23.858 29.1327 23.914 28.8611 23.9605C28.5994 23.9981 28.2821 24.0537 27.9265 24.1098C27.1241 24.2407 26.4037 24.3438 25.7216 24.4185C24.9932 24.5024 24.3018 24.5679 23.6475 24.6037C23.3494 24.621 23.0432 24.6302 22.75 24.6376H22.716L22.6358 24.6407C22.5593 24.6456 22.4852 24.6475 22.4105 24.6493H22.1605C22.0173 24.6493 21.8679 24.6426 21.7167 24.6407H21.6049V24.65L21.6235 24.6463V24.65H21.7284C21.8802 24.65 22.0315 24.658 22.1765 24.658H22.4074L22.4018 24.6487H22.4074C22.4438 24.7135 22.4827 24.7777 22.5216 24.8432L22.563 24.9105H22.642C22.7222 24.9105 22.8018 24.9105 22.8821 24.9074H22.9012C23.0759 24.9031 23.2488 24.8956 23.4197 24.887L23.679 24.8728C24.3333 24.8358 25.0339 24.7703 25.7617 24.6876C26.4438 24.6129 27.163 24.5098 27.9759 24.379C28.1265 24.3592 28.2706 24.3386 28.408 24.3172L28.6432 24.2784L28.7284 24.2629L28.9136 24.2314C29.1846 24.1845 29.5018 24.1284 29.8475 24.0635C30.6235 23.9234 31.3704 23.7642 32.0809 23.5963C32.3975 23.5222 32.6981 23.4469 32.9907 23.3691L33.0068 23.3654C33.371 23.2691 33.7167 23.171 34.0518 23.0728C34.4167 22.9703 34.7525 22.858 35.0704 22.7555L35.1537 22.7265C35.263 22.6901 35.3673 22.6524 35.4722 22.6154C35.7525 22.5216 36.0142 22.4191 36.2747 22.316L36.4055 22.2697C37.3586 21.8771 38.1531 21.4568 38.779 21.0172C39.7086 20.7568 40.8778 20.6635 42.3648 20.7271H42.3852C41.1333 21.671 39.2926 22.5493 36.9012 23.3617H36.8914L36.521 23.4851C35.8555 23.7031 35.158 23.9123 34.4339 24.1092L34.4055 24.1185C34.3216 24.1376 34.2469 24.1654 34.163 24.1839L33.9012 24.2493C33.5648 24.3432 33.2284 24.4271 32.9136 24.5018C32.7284 24.5487 32.5488 24.5858 32.3716 24.6327L31.9883 24.7259C31.792 24.7635 31.6055 24.8098 31.4185 24.8493C30.8765 24.9617 30.3346 25.0734 29.7926 25.1765C29.5315 25.2228 29.2988 25.2605 29.092 25.3C28.8852 25.3395 28.6599 25.3753 28.3914 25.4123C27.8778 25.487 27.3265 25.571 26.7753 25.6364L26.7284 25.6456C26.5605 25.674 26.3827 25.6926 26.2049 25.7111L25.8037 25.758C25.6074 25.7858 25.4018 25.8049 25.1963 25.8234C24.8414 25.8512 24.4765 25.8889 24.1123 25.9166L24.0469 25.9259C23.9815 25.9358 23.9235 25.9358 23.8617 25.945L23.7031 25.9543C22.892 26.0123 22.1105 26.0475 21.371 26.0617L21.087 26.0666H21.0216C18.5321 26.0907 16.5253 25.8685 15.0543 25.3907L15.0407 25.387H15.0327C16.3235 24.8672 17.3827 24.5777 18.387 24.4648H18.3778C18.2012 24.408 18.0327 24.345 17.8753 24.2796C18.0556 24.2487 18.2323 24.2236 18.4056 24.2043L18.4321 24.466C18.516 24.4568 18.5907 24.4568 18.6747 24.4475C18.8938 24.4307 19.1138 24.4272 19.3333 24.437C19.7171 24.5116 20.1044 24.5662 20.4938 24.6006C20.6562 24.6166 20.8241 24.629 20.9963 24.6389C21.1685 24.6487 21.3327 24.6568 21.5062 24.6623H21.5154L21.5463 24.6555L21.5821 24.6512L21.6093 24.6463" fill="white"/>
<path d="M21.6605 20.179C21.037 19.6359 20.3536 19.1658 19.6235 18.7778L19.3994 18.6654C18.6142 18.2821 17.6988 17.9833 16.6056 17.7309C15.6525 17.5068 14.6531 17.3574 13.6346 17.1988L13.4667 17.1704C12.6161 17.0395 11.813 16.9185 11.037 16.7691L11.0932 16.4982C11.8685 16.6475 12.6722 16.7691 13.513 16.8994L13.6815 16.9278C14.7093 17.0864 15.7086 17.2364 16.671 17.4605C17.792 17.7124 18.7173 18.0303 19.5204 18.413L19.7451 18.5253C20.497 18.9206 21.1994 19.4036 21.8377 19.9642L21.6605 20.179Z" fill="white"/>
<path d="M21.9222 23.5049C21.5488 23.2154 21.2031 22.9537 20.8667 22.7204C19.3438 21.6549 17.9889 21.0197 16.5969 20.7395L16.5037 20.721C15.4383 20.5154 14.1957 20.4407 12.6914 20.4969H12.6821C11.3272 20.5432 9.91667 20.6821 8.67408 20.8055H8.6463C7.3568 20.9364 6.14198 21.058 5.01173 21.1043L5.00247 20.824C6.12346 20.7777 7.33828 20.6561 8.61791 20.5253H8.6463C9.8889 20.4018 11.3006 20.2635 12.6636 20.2166H12.6728C14.1957 20.1605 15.4667 20.2352 16.55 20.45L16.6438 20.4685C18.0729 20.758 19.4648 21.4031 21.0161 22.4963C21.3525 22.7389 21.7074 22.9901 22.0809 23.2901L21.9222 23.5049Z" fill="white"/>
<path d="M22.258 24.6636H22.174C22.029 24.6636 21.8778 24.6574 21.7259 24.6556L21.7117 24.6457C21.3907 24.4432 21.0981 24.2691 20.8203 24.1142C20.6969 24.0451 20.5734 23.979 20.4561 23.916L20.4234 23.8994C18.9808 23.134 17.7074 22.7556 16.4111 22.7068C16.3494 22.7068 16.2907 22.7031 16.2308 22.7025H16.1166C15.0142 22.7025 13.7518 22.8611 12.2506 23.1778C12.2037 23.187 12.1574 23.1963 12.1105 23.2068C12.0734 23.2154 12.0352 23.2228 11.9975 23.2309C10.7364 23.5056 9.46295 23.8574 8.32098 24.1741L8.16789 24.216L8.03024 24.2525C6.7037 24.6265 5.45185 24.9722 4.28395 25.2148L4.22778 24.9438C5.38024 24.7019 6.62592 24.3593 7.93703 23.987L7.95555 23.9815L8.09567 23.9444L8.22468 23.9086C9.36974 23.5914 10.6562 23.2383 11.9234 22.9537L12.0469 22.9259L12.1741 22.8988C13.6599 22.5802 14.9173 22.4204 16.0111 22.413H16.2889C17.6173 22.4414 18.916 22.7994 20.3629 23.5401C20.4345 23.5765 20.5068 23.6154 20.5796 23.6537C20.6 23.6648 20.6203 23.6747 20.6413 23.687C21.1154 23.9401 21.6345 24.2543 22.2463 24.6531L22.258 24.6636Z" fill="white"/>
<path d="M21.5772 24.6432L21.5414 24.6475L21.5105 24.6543H21.5012C21.3278 24.6488 21.1574 24.6414 20.9914 24.6309C20.8253 24.6204 20.6512 24.6086 20.4889 24.5926L20.4327 24.5796C20.408 24.5728 20.384 24.5685 20.3586 24.563C20.0551 24.4956 19.7468 24.4525 19.4364 24.434V24.434C19.4148 24.434 19.3926 24.4309 19.371 24.4302H19.3346C19.115 24.4205 18.8951 24.424 18.6759 24.4407C18.592 24.45 18.5173 24.45 18.4333 24.4593L18.4012 24.1975V24.179C18.485 24.1685 18.5693 24.1623 18.6537 24.1605C19.3403 24.113 20.0299 24.1802 20.6944 24.3593C20.9027 24.4132 21.1138 24.4774 21.3278 24.5519C21.3549 24.5611 21.3827 24.5704 21.4099 24.5809H21.4284L21.4568 24.5994L21.5333 24.6296L21.5519 24.6358C21.5597 24.6386 21.5678 24.6409 21.5759 24.6426L21.5772 24.6432Z" fill="white"/>
<path d="M9.05739 28.158L8.95431 27.9055C9.75678 27.5691 10.5988 27.158 11.4852 26.7191L11.5506 26.6907C12.5383 26.2049 13.5593 25.7031 14.587 25.271L14.6895 25.5228C13.671 25.9549 12.6525 26.4487 11.6722 26.9339L11.6068 26.971C10.7111 27.4105 9.86974 27.8216 9.05739 28.158Z" fill="white"/>
<path d="M29.3778 26.9432C29.2469 26.9617 29.1068 26.9901 28.9574 27.0086C28.6772 27.0556 28.3593 27.1019 28.0136 27.158L27.9296 27.1673C27.7895 27.1864 27.6494 27.2049 27.4975 27.2235C27.3457 27.242 27.1889 27.2704 27.021 27.2889H26.9932C26.7407 27.3265 26.4698 27.3543 26.1988 27.392H26.1728L25.8272 27.429C23.7335 27.6794 21.6286 27.8236 19.5204 27.8611L19.1938 27.8704L19.4179 27.6278C19.9117 27.1043 20.4549 26.5531 20.9969 26.0846L21.0339 26.0469H21.0809C22.0068 26.0377 23.0056 25.9907 24.0438 25.9068L24.1185 25.8975C24.4889 25.8691 24.8593 25.8321 25.2025 25.8043C25.4173 25.7852 25.6346 25.7574 25.8377 25.7389L26.2111 25.692C26.3889 25.6735 26.5568 25.6543 26.716 25.6265L26.7716 25.6173C27.3327 25.5519 27.8741 25.4679 28.3883 25.3932C28.6591 25.3553 28.8926 25.3179 29.0889 25.2809C29.2944 25.2432 29.5278 25.2062 29.7895 25.1574C30.3315 25.0549 30.8735 24.9426 31.4154 24.8302C31.6006 24.7932 31.7889 24.7463 31.9852 24.7068L32.4055 24.6037C32.5741 24.5667 32.742 24.529 32.9099 24.4802C33.228 24.4058 33.5551 24.3218 33.8914 24.2284L34.1525 24.163C35.1056 23.9012 36.0216 23.6302 36.8685 23.3407L36.9247 23.3315L36.9617 23.3407C37.6543 23.6173 38.3562 23.9722 39.0123 24.3086L39.3111 24.458L38.9938 24.5611C36.9731 25.2213 34.9205 25.7798 32.8438 26.2346L32.2839 26.358C32.0784 26.4043 31.8827 26.442 31.6957 26.4815L31.5179 26.5191C31.4154 26.5377 31.3216 26.5562 31.2191 26.5753C31.1167 26.5944 31.0043 26.6216 30.9012 26.6407L30.7241 26.6778C30.3784 26.7432 30.0605 26.8012 29.7802 26.8556C29.6493 26.898 29.5145 26.9273 29.3778 26.9432V26.9432ZM26.1451 27.1284H26.1827C26.4444 27.1 26.7056 27.063 26.958 27.0253H26.9864C27.1451 27.0068 27.3037 26.979 27.4531 26.9599C27.6025 26.9407 27.7525 26.9228 27.8852 26.9043L27.9599 26.8944C28.3056 26.8389 28.6136 26.792 28.8938 26.7543C29.0327 26.7251 29.173 26.7033 29.3142 26.6889C29.4451 26.6704 29.5852 26.6426 29.7253 26.6142C30.0056 26.5679 30.3235 26.5025 30.6691 26.437L30.8469 26.3994C30.9494 26.3809 31.0518 26.3623 31.1642 26.334C31.2574 26.3154 31.3605 26.2969 31.4537 26.2778L31.6315 26.2407C31.8167 26.2031 32.0142 26.1568 32.2198 26.1173L32.771 25.9938C34.8549 25.5272 36.8074 25.0062 38.5735 24.434C38.0315 24.1537 37.4623 23.8827 36.9006 23.6586C36.0599 23.9389 35.1537 24.2191 34.2099 24.471L33.9951 24.5272C33.6401 24.6204 33.2944 24.7123 32.958 24.7889C32.7901 24.8259 32.6216 24.8728 32.4537 24.9123L32.0216 25.0148C31.8253 25.0617 31.6383 25.0988 31.4512 25.1383C30.9093 25.2617 30.358 25.3716 29.8167 25.4747C29.5549 25.521 29.3228 25.5679 29.1154 25.5981C28.9195 25.6352 28.6829 25.6724 28.4056 25.7099C27.8825 25.7922 27.3407 25.8669 26.7802 25.934L26.7241 25.9438C26.5556 25.9623 26.3877 25.9809 26.2099 26.0093L25.8364 26.0556C25.6309 26.0741 25.416 26.1025 25.192 26.121C24.8364 26.1586 24.4722 26.1864 24.0988 26.2148L24.0241 26.2241C22.9963 26.2988 22.0148 26.3475 21.0994 26.3642C20.6605 26.7469 20.221 27.1864 19.8105 27.6161C21.6506 27.5784 23.65 27.4309 25.7525 27.184L26.1444 27.1278L26.1451 27.1284Z" fill="white"/>
<path d="M18.2321 29.2512L18.0469 29.0457C18.3833 28.7463 18.7753 28.3259 19.1864 27.887L19.4204 27.6346L19.6259 27.8309L19.392 28.0735C18.9698 28.5222 18.5802 28.9426 18.2321 29.2512Z" fill="white"/>
<path d="M35.1544 22.4712L35.0311 22.7229L36.8686 23.6234L36.9919 23.3718L35.1544 22.4712Z" fill="white"/>
<path d="M22.5309 24.9179L22.521 24.9272C22.4296 25.0167 21.8025 25.6265 21.3679 26.0592C21.3637 26.0643 21.3592 26.069 21.3543 26.0734L21.2043 26.2234L21 26.0827L21.0185 26.0642L21.0377 26.045C21.0377 26.045 21.9556 25.0605 22.1772 24.934L22.5142 24.9179H22.5309Z" fill="white"/>
<path d="M22.642 24.916H22.5142L22.1772 24.9321H21.8302C21.721 24.9321 21.6117 24.9259 21.5099 24.921C21.4825 24.9215 21.4551 24.9205 21.4278 24.9179H21.2617L21.2 24.9148H21.1463C21.1309 24.916 21.1154 24.916 21.1 24.9148H21.0253C20.4184 24.8827 19.8144 24.808 19.2179 24.6914C19.1093 24.6691 19.0037 24.6457 18.9 24.621C18.8568 24.6111 18.8142 24.6 18.771 24.5895C18.6475 24.5556 18.5272 24.521 18.4111 24.4846L18.3833 24.4784H18.3741C18.1975 24.4216 18.029 24.3586 17.8716 24.2932C18.0519 24.2623 18.2286 24.2372 18.4019 24.2179L18.4284 24.4796C18.5123 24.4704 18.587 24.4704 18.671 24.4611C18.8901 24.4443 19.1101 24.4408 19.3296 24.4506C19.7132 24.5252 20.1003 24.5798 20.4895 24.6142C20.6519 24.6302 20.8198 24.6426 20.992 24.6525C21.1642 24.6623 21.3284 24.6704 21.5019 24.6759H21.5111L21.542 24.6691L21.5778 24.6648L21.6049 24.6599V24.6759L21.6235 24.6722V24.6759H21.7284C21.8802 24.6759 22.0315 24.6839 22.1765 24.6839H22.4074L22.4019 24.6747H22.4074C22.4438 24.7364 22.4827 24.8037 22.5216 24.8691L22.563 24.9364L22.642 24.916Z" fill="white"/>
<path d="M35.2469 22.2049C35.2377 22.271 35.2272 22.337 35.2155 22.4025C35.2 22.4876 35.1834 22.5728 35.1648 22.6568L35.1519 22.7154L35.1482 22.729V22.7345L35.0735 22.7599C34.7081 22.8833 34.3513 22.9895 34.0506 23.079C33.7229 23.1765 33.3716 23.2716 33.0013 23.3679L32.9852 23.3716C32.6994 23.4457 32.3982 23.5191 32.0796 23.595C31.2772 23.7882 30.5333 23.9339 29.8494 24.0629C29.5611 24.1179 29.263 24.1716 28.9136 24.2321L28.7247 24.2654L28.6395 24.2808L28.4043 24.3197C28.2698 24.3407 28.1241 24.3617 27.9722 24.3815C27.1809 24.5092 26.4549 24.6099 25.7555 24.6901C25.0358 24.7716 24.3358 24.8339 23.6654 24.8753L23.4185 24.8895C23.2475 24.8981 23.0747 24.9055 22.9 24.9099H22.8808C22.8006 24.9099 22.721 24.9099 22.6407 24.9099H22.5617L22.5203 24.8426C22.4815 24.7771 22.4426 24.7129 22.4061 24.6481C22.3411 24.5345 22.2806 24.4218 22.2247 24.3099C22.2031 24.2679 22.1827 24.2253 22.1629 24.1864C22.1432 24.1475 22.124 24.1012 22.1012 24.058C22.0543 23.9561 22.0123 23.8549 21.974 23.7537C21.9537 23.7024 21.9352 23.6512 21.916 23.5994C21.8969 23.5475 21.8777 23.4883 21.8605 23.4321C21.8469 23.3938 21.8339 23.3549 21.821 23.3154C21.7703 23.1549 21.724 22.9864 21.6814 22.808C21.6716 22.7636 21.6611 22.7179 21.6506 22.6716C21.6485 22.6637 21.6471 22.6556 21.6463 22.6475C21.6358 22.6006 21.6259 22.5543 21.6173 22.5055C21.6086 22.466 21.6012 22.4271 21.5938 22.387L21.5753 22.2636L21.537 22.0167L21.5314 21.9636C21.46 21.3215 21.4807 20.6726 21.5932 20.0364C21.7593 19.0942 22.1207 18.1972 22.6543 17.4031C22.7389 17.2753 22.829 17.1512 22.9222 17.0284C23.2478 16.61 23.6174 16.2278 24.0247 15.8883C24.7857 15.2679 25.6692 14.8153 26.6173 14.5599C26.763 14.521 26.9099 14.4864 27.058 14.4574L27.3994 14.4C28.5849 14.2264 29.7952 14.3656 30.9104 14.8036C32.0256 15.2417 33.007 15.9635 33.7574 16.8975C33.7969 16.9463 33.8358 16.9957 33.8741 17.0451C33.9124 17.0944 33.9451 17.1389 33.979 17.1852C34.013 17.2315 34.0593 17.2975 34.0982 17.3537C34.2142 17.5245 34.3227 17.7 34.4235 17.8802C34.7383 18.4487 34.9723 19.0582 35.1186 19.6913C35.1377 19.7488 35.1544 19.8043 35.1673 19.8605C35.1872 19.9357 35.203 20.012 35.2148 20.0889C35.2155 20.0936 35.2155 20.0984 35.2148 20.1031C35.229 20.1852 35.2414 20.2667 35.2525 20.35C35.2605 20.4117 35.2679 20.4734 35.2741 20.5352C35.2803 20.5969 35.2852 20.6586 35.2895 20.7204C35.2939 20.7821 35.2982 20.8401 35.3007 20.9018C35.3031 20.9636 35.3068 21.0111 35.3087 21.0667V21.0809C35.3212 21.4566 35.3005 21.8328 35.2469 22.2049V22.2049Z" fill="white"/>
</g>
<defs>
<clipPath id="clip0_308_34">
<rect width="40" height="40" rx="20" fill="white"/>
</clipPath>
</defs>
</svg>
