<svg width="40" height="40" viewBox="0 0 40 40" fill="none" xmlns="http://www.w3.org/2000/svg">
<path d="M20 40C8.94545 40 0 31.0545 0 20C0 8.94545 8.94545 0 20 0C31.0545 0 40 8.94545 40 20C40 31.0545 31.0545 40 20 40Z" fill="url(#paint0_linear_602_9)"/>
<path d="M30.6182 26.1455C30.5818 26.2182 30.5455 26.2909 30.5091 26.3273L30.4364 26.4364C30.1818 26.8 29.8909 27.0909 29.5273 27.3091L21.7818 31.7818C21.2364 32.1091 20.6182 32.2545 20.0364 32.2545C19.4182 32.2545 18.8364 32.1091 18.2909 31.7818L11.4909 27.8909C11.4182 27.8182 11.3455 27.7818 11.2727 27.7455C11.2 27.6364 11.1636 27.5636 11.1636 27.4545C11.2364 27.2 11.8182 27.0909 11.8545 27.0545C12 27.0182 12.1455 27.0182 12.2909 26.9818H12.4C12.6545 26.9455 12.9091 26.9091 13.1273 26.8727C13.3818 26.8364 13.6 26.8 13.8545 26.7636C14.8364 26.6182 15.7818 26.5091 16.7273 26.4C17.6364 26.2909 18.5455 26.1818 19.4909 26.1091C20.4727 26 21.3818 25.9273 22.1818 25.8909C23.0545 25.8545 23.9273 25.7818 24.7636 25.7455C25.6 25.7091 26.4364 25.7091 27.2727 25.6727C27.3455 25.6727 27.4545 25.6727 27.5273 25.6727H27.7818C28.4 25.6727 29.0545 25.6727 29.7091 25.7091C29.7818 25.7091 29.8545 25.7091 29.9636 25.7091H30.1091C30.3636 25.7455 30.5091 25.8182 30.5818 25.9273C30.6545 26 30.6545 26.0727 30.6182 26.1455Z" fill="url(#paint1_linear_602_9)"/>
<path d="M31.0909 19.3091V21.8546C31.0909 22.8 31.0909 22.8364 29.1273 23.0546L27.8545 23.1636C27.6727 23.1636 27.5273 23.2 27.3454 23.2L26.9454 23.2727C23.7091 23.6 20.4364 23.8909 17.2 24.0727C15.7454 24.1455 14.3273 24.2182 12.8727 24.2909C12.2182 24.3273 11.5273 24.3273 10.8727 24.3636C10.5454 24.3636 10.2182 24.3636 9.8909 24.3636C9.63636 24.3636 9.23636 24.4364 9.01817 24.2546C8.83636 24.0727 8.87272 23.7091 8.87272 23.4546V17.0546C8.87272 16.1455 9.16363 15.9636 11.0182 15.8546C11.3454 15.8546 11.6364 15.8546 12.0727 15.8546C17.5273 15.8546 23.3091 16.6546 30.2909 18.4H30.3273C30.4 18.4 30.4364 18.4364 30.5091 18.4364C30.8 18.5455 31.0909 18.4727 31.0909 19.3091Z" fill="url(#paint2_linear_602_9)"/>
<path d="M30.6182 15.0909C30.5818 15.1273 30.5455 15.1273 30.5091 15.1636C30.2909 15.2364 30.0364 15.2 29.8182 15.1636C29.5636 15.1636 29.3091 15.1273 29.0546 15.1273C28.5818 15.0909 28.0727 15.0545 27.6 14.9818C26.9455 14.9091 26.2909 14.8364 25.6727 14.7636C24.6909 14.6545 23.7091 14.5455 22.7636 14.4364C21.6364 14.3273 20.4727 14.1818 19.3455 14.0727C18.2182 13.9636 17.0909 13.8182 15.9636 13.7091C14.9818 13.6 14.0364 13.4909 13.0546 13.4182C12.4364 13.3455 11.7818 13.2727 11.1636 13.2C11.0182 13.2 10.8364 13.1636 10.6909 13.1636C10.6546 13.1636 10.6182 13.1636 10.5818 13.1636C10.4727 13.1273 10.3636 13.1273 10.2909 13.0545C10.2546 13.0182 10.2546 12.9455 10.3273 12.8364L10.3636 12.8C10.4 12.7636 10.4727 12.7273 10.5091 12.6909C10.5818 12.6545 10.6182 12.6182 10.6909 12.5818L18.2546 8.21818C18.8 7.92727 19.4182 7.74545 20.0364 7.74545C20.6546 7.74545 21.2727 7.89091 21.7818 8.21818C21.7818 8.21818 29.2364 12.5091 29.3455 12.5818C29.9636 12.9455 30.4727 13.5636 30.6182 14.2909C30.6546 14.4727 30.7636 14.9091 30.6182 15.0909Z" fill="url(#paint3_linear_602_9)"/>
<defs>
<linearGradient id="paint0_linear_602_9" x1="6.68175" y1="32.7993" x2="31.0911" y2="9.34098" gradientUnits="userSpaceOnUse">
<stop offset="0.0156851" stop-color="#2E0E5B"/>
<stop offset="1" stop-color="#2E205B"/>
</linearGradient>
<linearGradient id="paint1_linear_602_9" x1="33.9726" y1="7.58429" x2="16.332" y2="33.4822" gradientUnits="userSpaceOnUse">
<stop offset="0.0403439" stop-color="#6AF2A6"/>
<stop offset="0.197" stop-color="#64EFAB"/>
<stop offset="0.4077" stop-color="#53E8B9"/>
<stop offset="0.6492" stop-color="#37DCD1"/>
<stop offset="0.9118" stop-color="#10CBF1"/>
<stop offset="1" stop-color="#01C5FD"/>
</linearGradient>
<linearGradient id="paint2_linear_602_9" x1="29.9807" y1="4.86521" x2="12.3401" y2="30.7632" gradientUnits="userSpaceOnUse">
<stop offset="0.0403439" stop-color="#6AF2A6"/>
<stop offset="0.197" stop-color="#64EFAB"/>
<stop offset="0.4077" stop-color="#53E8B9"/>
<stop offset="0.6492" stop-color="#37DCD1"/>
<stop offset="0.9118" stop-color="#10CBF1"/>
<stop offset="1" stop-color="#01C5FD"/>
</linearGradient>
<linearGradient id="paint3_linear_602_9" x1="27.7031" y1="3.31382" x2="10.0625" y2="29.2118" gradientUnits="userSpaceOnUse">
<stop offset="0.0403439" stop-color="#6AF2A6"/>
<stop offset="0.197" stop-color="#64EFAB"/>
<stop offset="0.4077" stop-color="#53E8B9"/>
<stop offset="0.6492" stop-color="#37DCD1"/>
<stop offset="0.9118" stop-color="#10CBF1"/>
<stop offset="1" stop-color="#01C5FD"/>
</linearGradient>
</defs>
</svg>
