<svg width="40" height="40" viewBox="0 0 40 40" fill="none" xmlns="http://www.w3.org/2000/svg">
<path d="M20 40C31.0457 40 40 31.0457 40 20C40 8.95431 31.0457 0 20 0C8.95431 0 0 8.95431 0 20C0 31.0457 8.95431 40 20 40Z" fill="#012F61"/>
<path d="M14.536 7.66V17.12C14.536 17.44 14.84 17.7 15.16 17.7C15.48 17.7 15.784 17.44 15.784 17.12V8.144C16.36 8.044 17.008 7.992 17.64 7.992C23.712 7.992 28.684 12.548 29.228 18.584C29.256 18.904 29.532 19.14 29.848 19.108C30.168 19.08 30.4 18.8 30.368 18.48C30.084 15.308 28.628 12.368 26.272 10.208C23.904 8.032 20.824 6.832 17.608 6.832C16.74 6.832 15.856 6.92 15.012 7.092C14.744 7.148 14.536 7.384 14.536 7.66Z" fill="white"/>
<path d="M17.912 31.84C17.912 31.852 17.912 31.868 17.912 31.88C17.936 32.2 18.212 32.44 18.532 32.416C21.568 32.2 24.44 30.896 26.612 28.752C28.784 26.608 30.12 23.756 30.372 20.728C30.4 20.408 30.164 20.128 29.844 20.1C29.524 20.072 29.244 20.308 29.216 20.628C28.74 26.284 24.112 30.856 18.448 31.26C18.148 31.284 17.912 31.54 17.912 31.84Z" fill="white"/>
<path d="M17.032 9.92801V19.324C17.032 19.644 17.288 19.904 17.608 19.904C17.928 19.904 18.184 19.644 18.184 19.324V10.528C22.888 10.828 26.74 14.8 26.74 19.64C26.74 21.816 25.964 23.92 24.552 25.572C24.344 25.8161 24.372 26.1801 24.616 26.3881C24.86 26.5961 25.224 26.5681 25.432 26.3241C27.024 24.464 27.896 22.092 27.896 19.64C27.896 16.892 26.824 14.308 24.88 12.364C22.936 10.42 20.352 9.34801 17.604 9.34801C17.292 9.34801 17.032 9.60801 17.032 9.92801Z" fill="#99D7FD"/>
<path d="M17.912 26.74C17.912 26.764 17.912 26.788 17.916 26.812C17.956 27.128 18.244 27.356 18.56 27.316C22.428 26.84 25.344 23.54 25.344 19.64C25.344 18.036 24.856 16.496 23.936 15.188C23.036 13.912 21.788 12.944 20.332 12.396C20.156 12.328 19.944 12.352 19.788 12.46C19.632 12.568 19.528 12.748 19.528 12.936V21.12C19.528 21.44 19.784 21.7 20.104 21.7C20.424 21.7 20.68 21.44 20.68 21.12V13.84C22.792 14.972 24.172 17.208 24.172 19.64C24.172 22.956 21.7 25.76 18.416 26.164C18.12 26.204 17.912 26.452 17.912 26.74Z" fill="white"/>
<path d="M15.12 19.112C15.8645 19.112 16.468 18.5085 16.468 17.764C16.468 17.0195 15.8645 16.416 15.12 16.416C14.3755 16.416 13.772 17.0195 13.772 17.764C13.772 18.5085 14.3755 19.112 15.12 19.112Z" fill="white"/>
<path d="M17.912 33.168C18.6565 33.168 19.26 32.5645 19.26 31.82C19.26 31.0755 18.6565 30.472 17.912 30.472C17.1675 30.472 16.564 31.0755 16.564 31.82C16.564 32.5645 17.1675 33.168 17.912 33.168Z" fill="white"/>
</svg>
