<svg width="40" height="40" viewBox="0 0 40 40" fill="none" xmlns="http://www.w3.org/2000/svg">
<path d="M20 40C31.0457 40 40 31.0457 40 20C40 8.9543 31.0457 0 20 0C8.9543 0 0 8.9543 0 20C0 31.0457 8.9543 40 20 40Z" fill="white"/>
<path d="M17.375 30.4063C18.4062 34.2187 22.0937 37.0937 23.9375 37C24 37 31 35.6875 34.8125 29.2812C37.7812 24.3125 36.7812 19.5 32.7187 19.375C31.3125 19.5 15.4062 23.1563 17.375 30.4063Z" fill="#0E3CA5"/>
<path d="M32.375 6C29.2812 3.34375 25.25 1.75 20.8437 1.75C18.2812 1.75 15.8437 2.3125 13.625 3.28125C13.2187 3.4375 12.8437 3.625 12.5 3.84375C12.25 3.96875 12 4.125 11.75 4.25L11.8125 4.28125C11.0937 4.78125 10.4375 5.375 9.9375 6.0625C4.84375 12.7813 21.9375 17.6875 31.0937 17.7188C35.3125 20.7188 36.5 9.1875 32.375 6Z" fill="#0E3CA5"/>
<path d="M14.6563 6.125C12.3125 9.65625 4.46875 12.1563 3.1875 11.75C3.25 11.6563 3.28125 11.5313 3.34375 11.4375C3.78125 10.5625 4.3125 9.75 4.875 8.96875C5.4375 8.1875 6.0625 7.46875 6.75 6.78125C7.4375 6.09375 8.15625 5.46875 8.9375 4.90625C9.40625 4.5625 9.90625 4.21875 10.4375 3.90625C11.5313 3.28125 12.6562 3.21875 13.0312 3.21875C16.5 3.3125 14.6875 6.09375 14.6563 6.125Z" fill="#5493F7"/>
<path d="M12.7188 31.0938C12.875 32.2188 12.7187 36.5938 12.5 36.9688C12.3125 36.9688 11.9062 37 10.7187 36.3438C10.0937 36 9.5 35.5937 8.9375 35.1875C8.15625 34.625 7.4375 34 6.75 33.3125C6.0625 32.625 5.4375 31.9062 4.875 31.125C4.3125 30.3438 3.8125 29.5312 3.34375 28.6562C2.875 27.7812 2.5 26.9062 2.21875 25.9688C1.9375 25.0312 1.65625 24.0625 1.5 23.0938C1.34375 22.0938 1.25 21.0625 1.25 20.0312C1.25 19 1.34375 17.9688 1.5 17C1.65625 16.0313 1.90625 15.0625 2.21875 14.125C2.28125 13.9375 2.34375 13.75 2.40625 13.5625C3.75 15.375 5.3125 17 6.65625 18.8125C7.9375 20.5313 9.65625 23.375 10.0312 23.9687C12.2187 27.6875 12.5625 30 12.7188 31.0938Z" fill="#5493F7"/>
<path d="M38.75 20.0312C38.75 22.4687 38.2812 24.7812 37.4375 26.9062C35.2187 29.2812 20.3437 23.4375 20.1875 23.375C18.1562 22.5 11.9687 19.7813 11.4062 15.5313C10.5937 9.375 23.0625 5.09375 28.5312 4.9375C29.1875 4.9375 31.1875 4.96875 32.3437 5.90625C36.2812 9.375 38.75 14.4062 38.75 20.0312Z" fill="#5493F7"/>
<path d="M28.6875 36.6562C27.0625 37.4062 25.2813 36.875 25.75 35.2812C26.625 32.25 34.4375 29.125 36.1563 28.9687C36.375 28.9375 36.4688 29.0937 36.375 29.25C34.5313 32.4062 31.875 35 28.6875 36.6562Z" fill="#5493F7"/>
</svg>
