<svg width="40" height="40" viewBox="0 0 40 40" fill="none" xmlns="http://www.w3.org/2000/svg">
<g clip-path="url(#clip0_117_8)">
<path d="M19.963 40C31.0087 40 39.963 31.0457 39.963 20C39.963 8.9543 31.0087 0 19.963 0C8.91727 0 -0.0370331 8.9543 -0.0370331 20C-0.0370331 31.0457 8.91727 40 19.963 40Z" fill="#4520E6"/>
<path fill-rule="evenodd" clip-rule="evenodd" d="M26.9752 24.4145C26.9752 26.4763 25.3294 28.1534 23.3063 28.1534H16.2719L23.5824 20.7037C25.4748 20.8505 26.9752 22.4491 26.9752 24.4145ZM15.3412 20.2381V11.6243H23.5362C23.6762 11.6243 23.8143 11.632 23.9503 11.6472L15.3412 20.2381ZM28.6328 15.4294C28.6328 13.6922 27.7814 12.1511 26.4755 11.2041L30 7.66666L27.8915 7.67872L25.0913 10.4891C24.573 10.3143 24.0185 10.2196 23.4422 10.2196H13.802V23.9238L25.4084 12.275C26.4537 12.934 27.1502 14.1016 27.1502 15.4294C27.1502 17.4816 25.4869 19.1509 23.4422 19.1509H23.1353L10.2222 32.1111H12.3187L14.8504 29.5702H23.4422C26.3043 29.5702 28.6328 27.2333 28.6328 24.3608C28.6328 22.4664 27.6169 20.8099 26.1065 19.898C27.6185 18.9864 28.6328 17.3248 28.6328 15.4294Z" fill="white"/>
</g>
<defs>
<clipPath id="clip0_117_8">
<rect width="40" height="40" fill="white"/>
</clipPath>
</defs>
</svg>
