<svg width="41" height="40" viewBox="0 0 41 40" fill="none" xmlns="http://www.w3.org/2000/svg">
<circle cx="20.75" cy="20" r="20" fill="#002E33"/>
<path d="M26.5954 18.4167C26.1687 15.6441 23.8181 13.5959 20.8852 13.5959C17.8898 13.5959 15.4462 15.616 14.8358 18.4167H12.2257V20.5048H14.7264C15.0664 23.7378 17.7015 26.1119 20.9352 26.1119C23.4187 26.1119 25.4357 25.128 26.3211 23.5049L24.133 22.1037C23.5672 23.0376 22.3356 23.6276 20.9844 23.6276C19.0417 23.6276 17.714 22.4476 17.4186 20.5017H28.535L29.2258 18.4167H26.5954ZM20.7344 15.859C22.3825 15.859 23.636 16.9163 23.7821 18.4167H17.5155C17.9336 16.8421 19.0894 15.859 20.7375 15.859H20.7344Z" fill="#D9F6EF"/>
<path d="M20.75 36.6875C11.5482 36.6875 4.0625 29.2018 4.0625 20H6.93753C6.93753 27.617 13.1338 33.8133 20.75 33.8133V36.6875Z" fill="#D9F6EF"/>
<path d="M37.4375 20H34.5633C34.5633 12.3838 28.367 6.18674 20.75 6.18674V3.3125C29.9518 3.3125 37.4375 10.7982 37.4375 20Z" fill="#D9F6EF"/>
</svg>
