<svg width="40" height="40" viewBox="0 0 40 40" fill="none" xmlns="http://www.w3.org/2000/svg">
<path d="M20 40C31.0457 40 40 31.0457 40 20C40 8.95431 31.0457 0 20 0C8.95431 0 0 8.95431 0 20C0 31.0457 8.95431 40 20 40Z" fill="url(#paint0_linear)"/>
<path d="M20 38.7551C9.6633 38.7551 1.24493 30.3367 1.24493 20C1.24493 9.66326 9.6633 1.24489 20 1.24489C30.3368 1.24489 38.7551 9.66326 38.7551 20C38.7551 30.3367 30.3368 38.7551 20 38.7551ZM20 2.83672C10.5409 2.83672 2.83677 10.5306 2.83677 20C2.83677 29.4694 10.5409 37.1633 20 37.1633C29.4592 37.1633 37.1633 29.4592 37.1633 20C37.1633 10.5408 29.4592 2.83672 20 2.83672Z" fill="#28646E"/>
<path d="M18.7653 16.5714C18.4694 16.5714 18.2347 16.3367 18.2347 16.0408C18.2347 15.8878 18.2959 15.7449 18.4184 15.6429C19.9286 14.3163 20.5918 13.2245 20.7143 13.0102C21.153 12.2347 21.8673 11.8367 22.6122 11.9388C22.9082 11.9796 23.1122 12.2449 23.0714 12.5408C23.0306 12.8367 22.7653 13.0408 22.4694 13C22.0306 12.9388 21.7449 13.3571 21.6326 13.5408C21.5 13.7755 20.7551 15 19.1224 16.4388C19.0204 16.5306 18.8877 16.5714 18.7653 16.5714Z" fill="#28646E"/>
<path d="M9.78574 25.6122C9.48982 25.6122 9.25513 25.3775 9.25513 25.0816C9.25513 24.9286 9.32656 24.7755 9.449 24.6735C10.0715 24.1837 10.7245 23.7449 11.4082 23.3571C11.6735 23.2347 11.9898 23.3571 12.1123 23.6224C12.2245 23.8775 12.1225 24.1735 11.8878 24.3061C11.2755 24.653 10.6837 25.051 10.1327 25.4796C10.0306 25.5714 9.90819 25.6122 9.78574 25.6122Z" fill="#28646E"/>
<path d="M23.1939 20.551C23.4082 20.7449 23.6531 20.6633 23.8776 20.449C25.4184 18.9796 27.0613 16.6633 27.6021 15.4592C27.7143 15.2041 27.9592 15.0612 28.2041 15.1633C28.5 15.2857 28.5 15.7959 28.2245 16.3469C27.5102 17.8163 26.5204 19.4388 24.5613 21.4592C24.398 21.6123 24.3878 21.8674 24.5409 22.0408C24.5511 22.051 24.5613 22.0612 24.5715 22.0714C24.7449 22.2245 25.0204 22.2143 25.2857 21.949C26.3062 20.9184 26.9796 20.1123 27.5715 19.2857C27.7245 19.0714 27.898 18.9796 28.0817 19.0204C28.3368 19.0714 28.3776 19.3163 28.296 19.6123C28.1735 20.0918 26.8164 21.8572 26.2857 22.4592C24.8368 24.0714 23.3878 24.9592 20.6021 26.4082C19.6327 26.9184 18.898 27.398 18.4592 28.1429C18.0613 28.8163 17.9388 29.0408 17.898 29.1225C17.7347 29.449 17.8674 29.8572 18.1939 30.0204C18.5204 30.1735 18.9082 30.0408 19.0715 29.7143C19.0817 29.7041 19.0817 29.6939 19.0817 29.6837C19.0817 29.6735 19.0613 29.6939 19.5817 28.8061C19.9796 28.1735 20.5511 27.6735 21.2245 27.3572C24.0102 26.0816 25.1531 25.0816 26.7755 23.4592C27.5102 22.7245 28.5306 21.1327 28.8164 20.6735C29.5919 19.3572 29.1837 18.2347 28.4796 18.0408C28.4286 18.0306 28.398 17.9796 28.4184 17.9286C28.4184 17.9184 28.4286 17.9082 28.4286 17.9082C28.9694 16.9796 29.2245 16.3265 29.3266 15.8265C29.4694 15.1429 29.2755 14.3265 28.3368 14.1225C28.2858 14.1123 28.2551 14.0612 28.2755 14.0102C28.3368 13.7959 28.3878 13.5204 28.4286 13.347C28.6225 12.4694 28.0715 11.6633 27.398 11.5204C26.9592 11.4184 26.5 11.5204 26.1429 11.7857C26.0919 11.8163 26.0204 11.8163 25.9796 11.7653C25.8062 11.5714 25.5511 11.449 25.2857 11.4388C24.7041 11.4286 24.1225 11.6123 23.7041 12.5102C23.398 13.1531 22.9592 14.0102 21.6429 15.4694C20.4286 16.8163 18.7347 18.1327 17.6837 18.8265C17.5 18.949 17.2449 18.9184 17.2755 18.6735C17.3266 18.2857 17.7449 15.6531 17.8164 14.8776C17.9286 13.6225 17.2551 13.0408 16.5 12.9388C15.8776 12.8572 14.9286 13.0306 14.4082 14.4592C14.1021 15.2959 13.4694 16.6633 12.9286 18.8674C12.5511 20.4184 12.4898 22.2245 12.8368 24.3061C12.8572 24.4286 12.8368 24.5612 12.7653 24.6735C12.347 25.3572 11.7449 26.2551 11.4082 27.0306C11.2653 27.3469 11.3878 27.7143 11.6837 27.8878C12 28.0612 12.398 27.949 12.5715 27.6225C12.5817 27.6123 12.5817 27.602 12.5919 27.5918C12.796 27.1633 13.2041 26.3674 13.3674 26.0408C13.6531 25.4694 13.8368 25.0816 13.9082 24.8469C13.9796 24.6327 14.0204 24.3776 13.898 23.7959C13.6837 22.8265 13.6123 21.0102 14.0102 19.4082C14.4388 17.7449 14.9694 16.1123 15.5817 14.5102C15.7449 14.1123 15.9694 14 16.1939 14.0102C16.4184 14.0204 16.847 14.1429 16.7245 14.9388C16.5 16.3776 16.1939 18.2041 16.0919 18.8163C16.0408 19.1225 15.9796 19.8265 16.5408 20.1429C16.9694 20.398 17.449 20.2551 17.9796 19.898C19.1633 19.1021 21.2143 17.4898 22.5 16.051C23.847 14.5306 24.2755 13.6327 24.6225 12.8163C24.7755 12.449 25.1837 12.449 25.3266 12.4898C25.4694 12.5306 25.6429 12.7245 25.5204 13.1327C25.2245 14.1327 23.9898 16.4082 21.6123 18.551C21.347 18.7959 21.3776 19.0816 21.5204 19.2347C21.6633 19.3878 21.898 19.4796 22.1735 19.2347C24.3062 17.4184 25.5204 15.2449 26.0715 14.0816C26.2551 13.6939 26.4082 13.2959 26.5409 12.8878C26.6531 12.551 26.9184 12.4286 27.1021 12.4694C27.3572 12.5204 27.5306 12.7857 27.449 13.2245C27.3164 13.7857 27.1225 14.3265 26.8674 14.8469C26.1837 16.2959 24.7347 18.2347 23.1837 19.9082C23 20.0714 22.9898 20.3469 23.1429 20.5306C23.1735 20.5306 23.1837 20.5408 23.1939 20.551Z" fill="#28646E"/>
<path d="M13.551 13.3265C13.6327 13.2551 13.602 13.1633 13.5816 13.0816C13.4694 12.7143 12.8163 11.1837 12.6429 10.8775C12.551 10.7245 12.449 10.7041 12.3265 10.7449C12.1735 10.8061 11.9796 10.949 11.6939 11.2041C11.4082 11.4592 11.2347 11.6327 11.1633 11.7755C11.102 11.8878 11.1122 12 11.2551 12.102C11.5408 12.3163 12.9694 13.1633 13.3265 13.3265C13.3776 13.3673 13.4694 13.4082 13.551 13.3265Z" fill="#28646E"/>
<path d="M25.3775 26.898C25.2653 26.9082 25.2347 27 25.2143 27.0714C25.0816 27.4286 24.6735 29.051 24.6224 29.398C24.602 29.5714 24.6735 29.6531 24.7857 29.6939C24.9388 29.7449 25.1837 29.7449 25.5714 29.7143C25.9592 29.6837 26.1939 29.6531 26.3469 29.5816C26.4592 29.5306 26.5204 29.4388 26.4694 29.2653C26.3673 28.9286 25.7449 27.3775 25.5714 27.0408C25.5306 26.9796 25.4898 26.8877 25.3775 26.898Z" fill="#28646E"/>
<path d="M26.3061 26.1429C26.2551 26.2449 26.3163 26.3163 26.3673 26.3775C26.6122 26.6735 27.7755 27.8673 28.0408 28.0918C28.1735 28.2041 28.2857 28.1837 28.3775 28.102C28.5 27.9898 28.6224 27.7857 28.8061 27.449C28.9898 27.1122 29.0816 26.8878 29.102 26.7245C29.1224 26.602 29.0714 26.5 28.898 26.449C28.5612 26.3571 26.9082 26.0816 26.5306 26.0612C26.4592 26.051 26.3571 26.0408 26.3061 26.1429Z" fill="#28646E"/>
<path d="M12.9796 14.3265C12.9592 14.2143 12.8674 14.1939 12.7857 14.1837C12.4082 14.0918 10.7653 13.8571 10.4082 13.8469C10.2347 13.8367 10.1531 13.9286 10.1327 14.051C10.1021 14.2143 10.1225 14.449 10.1939 14.8265C10.2653 15.2041 10.3163 15.4388 10.4082 15.5816C10.4694 15.6939 10.5714 15.7449 10.7347 15.6735C11.0612 15.5408 12.5306 14.7551 12.847 14.5408C12.9184 14.4898 13 14.4388 12.9796 14.3265Z" fill="#28646E"/>
<path d="M20 35.7143C20.3268 35.7143 20.5918 35.4493 20.5918 35.1224C20.5918 34.7956 20.3268 34.5306 20 34.5306C19.6731 34.5306 19.4081 34.7956 19.4081 35.1224C19.4081 35.4493 19.6731 35.7143 20 35.7143Z" fill="#28646E"/>
<path d="M20 5.46939C20.3268 5.46939 20.5918 5.20441 20.5918 4.87755C20.5918 4.55069 20.3268 4.28571 20 4.28571C19.6731 4.28571 19.4081 4.55069 19.4081 4.87755C19.4081 5.20441 19.6731 5.46939 20 5.46939Z" fill="#28646E"/>
<path d="M23.9184 35.1939C24.2452 35.1939 24.5102 34.9289 24.5102 34.602C24.5102 34.2752 24.2452 34.0102 23.9184 34.0102C23.5915 34.0102 23.3265 34.2752 23.3265 34.602C23.3265 34.9289 23.5915 35.1939 23.9184 35.1939Z" fill="#28646E"/>
<path d="M16.0816 5.9898C16.4085 5.9898 16.6735 5.72483 16.6735 5.39797C16.6735 5.0711 16.4085 4.80613 16.0816 4.80613C15.7548 4.80613 15.4898 5.0711 15.4898 5.39797C15.4898 5.72483 15.7548 5.9898 16.0816 5.9898Z" fill="#28646E"/>
<path d="M27.5612 33.6837C27.8881 33.6837 28.1531 33.4187 28.1531 33.0918C28.1531 32.765 27.8881 32.5 27.5612 32.5C27.2344 32.5 26.9694 32.765 26.9694 33.0918C26.9694 33.4187 27.2344 33.6837 27.5612 33.6837Z" fill="#28646E"/>
<path d="M13.0282 7.00052C13.0805 6.67787 12.8614 6.37387 12.5388 6.3215C12.2161 6.26914 11.9121 6.48825 11.8598 6.81089C11.8074 7.13354 12.0265 7.43754 12.3492 7.48991C12.6718 7.54227 12.9758 7.32316 13.0282 7.00052Z" fill="#28646E"/>
<path d="M30.6939 31.2857C31.0207 31.2857 31.2857 31.0207 31.2857 30.6939C31.2857 30.367 31.0207 30.102 30.6939 30.102C30.367 30.102 30.1021 30.367 30.1021 30.6939C30.1021 31.0207 30.367 31.2857 30.6939 31.2857Z" fill="#28646E"/>
<path d="M9.30613 9.89796C9.63299 9.89796 9.89797 9.63299 9.89797 9.30612C9.89797 8.97926 9.63299 8.71429 9.30613 8.71429C8.97927 8.71429 8.71429 8.97926 8.71429 9.30612C8.71429 9.63299 8.97927 9.89796 9.30613 9.89796Z" fill="#28646E"/>
<path d="M33.0918 28.1531C33.4187 28.1531 33.6837 27.8881 33.6837 27.5612C33.6837 27.2344 33.4187 26.9694 33.0918 26.9694C32.765 26.9694 32.5 27.2344 32.5 27.5612C32.5 27.8881 32.765 28.1531 33.0918 28.1531Z" fill="#28646E"/>
<path d="M6.90818 13.0306C7.23504 13.0306 7.50002 12.7656 7.50002 12.4388C7.50002 12.1119 7.23504 11.8469 6.90818 11.8469C6.58132 11.8469 6.31635 12.1119 6.31635 12.4388C6.31635 12.7656 6.58132 13.0306 6.90818 13.0306Z" fill="#28646E"/>
<path d="M34.6021 24.5102C34.9289 24.5102 35.1939 24.2452 35.1939 23.9184C35.1939 23.5915 34.9289 23.3265 34.6021 23.3265C34.2752 23.3265 34.0102 23.5915 34.0102 23.9184C34.0102 24.2452 34.2752 24.5102 34.6021 24.5102Z" fill="#28646E"/>
<path d="M5.39793 16.6735C5.72479 16.6735 5.98976 16.4085 5.98976 16.0816C5.98976 15.7548 5.72479 15.4898 5.39793 15.4898C5.07107 15.4898 4.80609 15.7548 4.80609 16.0816C4.80609 16.4085 5.07107 16.6735 5.39793 16.6735Z" fill="#28646E"/>
<path d="M35.1224 20.5918C35.4493 20.5918 35.7143 20.3269 35.7143 20C35.7143 19.6731 35.4493 19.4082 35.1224 19.4082C34.7956 19.4082 34.5306 19.6731 34.5306 20C34.5306 20.3269 34.7956 20.5918 35.1224 20.5918Z" fill="#28646E"/>
<path d="M4.87754 20.5918C5.2044 20.5918 5.46938 20.3269 5.46938 20C5.46938 19.6731 5.2044 19.4082 4.87754 19.4082C4.55068 19.4082 4.28571 19.6731 4.28571 20C4.28571 20.3269 4.55068 20.5918 4.87754 20.5918Z" fill="#28646E"/>
<path d="M34.6021 16.6735C34.9289 16.6735 35.1939 16.4085 35.1939 16.0816C35.1939 15.7548 34.9289 15.4898 34.6021 15.4898C34.2752 15.4898 34.0102 15.7548 34.0102 16.0816C34.0102 16.4085 34.2752 16.6735 34.6021 16.6735Z" fill="#28646E"/>
<path d="M5.39793 24.5102C5.72479 24.5102 5.98976 24.2452 5.98976 23.9184C5.98976 23.5915 5.72479 23.3265 5.39793 23.3265C5.07107 23.3265 4.80609 23.5915 4.80609 23.9184C4.80609 24.2452 5.07107 24.5102 5.39793 24.5102Z" fill="#28646E"/>
<path d="M33.0918 13.0306C33.4187 13.0306 33.6837 12.7656 33.6837 12.4388C33.6837 12.1119 33.4187 11.8469 33.0918 11.8469C32.765 11.8469 32.5 12.1119 32.5 12.4388C32.5 12.7656 32.765 13.0306 33.0918 13.0306Z" fill="#28646E"/>
<path d="M6.90818 28.1531C7.23504 28.1531 7.50002 27.8881 7.50002 27.5612C7.50002 27.2344 7.23504 26.9694 6.90818 26.9694C6.58132 26.9694 6.31635 27.2344 6.31635 27.5612C6.31635 27.8881 6.58132 28.1531 6.90818 28.1531Z" fill="#28646E"/>
<path d="M30.6939 9.89796C31.0207 9.89796 31.2857 9.63299 31.2857 9.30612C31.2857 8.97926 31.0207 8.71429 30.6939 8.71429C30.367 8.71429 30.1021 8.97926 30.1021 9.30612C30.1021 9.63299 30.367 9.89796 30.6939 9.89796Z" fill="#28646E"/>
<path d="M9.30613 31.2857C9.63299 31.2857 9.89797 31.0207 9.89797 30.6939C9.89797 30.367 9.63299 30.102 9.30613 30.102C8.97927 30.102 8.71429 30.367 8.71429 30.6939C8.71429 31.0207 8.97927 31.2857 9.30613 31.2857Z" fill="#28646E"/>
<path d="M27.5612 7.49999C27.8881 7.49999 28.1531 7.23502 28.1531 6.90816C28.1531 6.5813 27.8881 6.31632 27.5612 6.31632C27.2344 6.31632 26.9694 6.5813 26.9694 6.90816C26.9694 7.23502 27.2344 7.49999 27.5612 7.49999Z" fill="#28646E"/>
<path d="M12.4388 33.6837C12.7656 33.6837 13.0306 33.4187 13.0306 33.0918C13.0306 32.765 12.7656 32.5 12.4388 32.5C12.1119 32.5 11.8469 32.765 11.8469 33.0918C11.8469 33.4187 12.1119 33.6837 12.4388 33.6837Z" fill="#28646E"/>
<path d="M23.9184 5.9898C24.2452 5.9898 24.5102 5.72483 24.5102 5.39797C24.5102 5.0711 24.2452 4.80613 23.9184 4.80613C23.5915 4.80613 23.3265 5.0711 23.3265 5.39797C23.3265 5.72483 23.5915 5.9898 23.9184 5.9898Z" fill="#28646E"/>
<path d="M16.0816 35.1939C16.4085 35.1939 16.6735 34.9289 16.6735 34.602C16.6735 34.2752 16.4085 34.0102 16.0816 34.0102C15.7548 34.0102 15.4898 34.2752 15.4898 34.602C15.4898 34.9289 15.7548 35.1939 16.0816 35.1939Z" fill="#28646E"/>
<defs>
<linearGradient id="paint0_linear" x1="0" y1="20" x2="40" y2="20" gradientUnits="userSpaceOnUse">
<stop stop-color="#D2F0F0"/>
<stop offset="1" stop-color="#F0E6B4"/>
</linearGradient>
</defs>
</svg>
