<svg width="40" height="40" viewBox="0 0 40 40" fill="none" xmlns="http://www.w3.org/2000/svg">
<path d="M33.1127 6.88727C29.6109 3.38182 24.9527 1.45454 20 1.45454C9.77454 1.45454 1.45454 9.77454 1.45454 20C1.45454 30.2255 9.77454 38.5455 20 38.5455C24.9527 38.5455 29.6145 36.6182 33.1127 33.1127C36.6182 29.6109 38.5455 24.9527 38.5455 20C38.5455 15.0473 36.6218 10.3891 33.1127 6.88727Z" fill="#FCFCFC"/>
<path d="M29.0946 15.48H18.5636C18.4836 15.48 18.4109 15.4364 18.3709 15.36L16.2873 11.5273C16.2764 11.5055 16.2691 11.48 16.2727 11.4546C16.2909 11.3382 16.3818 11.2509 16.4909 11.2509H31.1709C31.28 11.2509 31.3746 11.3382 31.3891 11.4546C31.3928 11.48 31.3855 11.5055 31.3746 11.5273L29.2873 15.36C29.2473 15.4327 29.1746 15.48 29.0946 15.48Z" fill="#3054BC"/>
<path d="M13.0473 11.48L18.3927 20.5527C18.4327 20.6218 18.4327 20.7054 18.3963 20.7745L16.4145 24.3636C16.4036 24.3854 16.3854 24.4 16.3673 24.4109C16.2691 24.4509 16.1491 24.4109 16.0945 24.3164L8.64 11.6691C8.58546 11.5745 8.60727 11.4545 8.69091 11.3855C8.70909 11.3709 8.73091 11.3636 8.75636 11.3636L12.8582 11.3709C12.9345 11.3709 13.0073 11.4145 13.0473 11.48Z" fill="#3054BC"/>
<path d="M17.9855 27.4182L23.1746 18.2546C23.2146 18.1855 23.2837 18.1418 23.3637 18.1418L27.4618 18.0655C27.4837 18.0655 27.5091 18.0691 27.5273 18.0836C27.6109 18.1491 27.6364 18.2727 27.5818 18.3673L20.3491 31.1418C20.2946 31.2364 20.1782 31.2764 20.0764 31.24C20.0546 31.2327 20.0364 31.2146 20.0255 31.1927L17.9818 27.6364C17.9455 27.5709 17.9455 27.4873 17.9855 27.4182Z" fill="#3054BC"/>
</svg>
