<?xml version="1.0" encoding="UTF-8"?>
<svg id="Layer_2" data-name="Layer 2" xmlns="http://www.w3.org/2000/svg" viewBox="0 0 722.42 114.25">
  <defs>
    <style>
      .cls-1 {
        fill: #4173fa;
      }

      .cls-2 {
        fill: #f3f7ff;
      }
    </style>
  </defs>
  <g id="Layer_1-2" data-name="Layer 1">
    <g>
      <g>
        <path class="cls-1" d="M721.5,38.48c-.95-1.93-2.17-3.71-3.61-5.3-.98-1.15-2.15-2.1-3.65-1.95-1.95.2-4.05.26-5.39,2.17-1.56,2.1-2.57,4.56-2.92,7.16-.65,5.49,4.44,10.45,10.24,10.07,5.84-.39,7.52-7.66,5.33-12.16ZM714.39,46.64c-2.1-3.55-.88-6.75.38-10,2.39,2.64,2.27,6.82-.38,10ZM694.39,9.39c-2.04-2.45-3.01-2.77-6.06-1.82-1.6,0-3.08.87-3.86,2.26-3.39,5.45-5.38,14.95,3.37,16.13,6.2.84,9.88-3.99,9.64-9.57-.11-2.76-1.38-4.96-3.09-7.01ZM688.9,22.35c-.63-3.47.57-6.41,1.47-9.58,1.7,3.17,1.1,7.07-1.47,9.58Z"/>
        <path class="cls-1" d="M716.73.27c-2.05-.53-4.19-.42-5.3,1.53-10.63,18.69-17.22,38.71-25.85,57.82-6.33,14.02-20.31,47.04-28.77,48.5-5.92,1.02-9.93,1.03-12.36-7.58,13.68-11.05,27.17-28.66,27.17-48.92,0-9.56-4.51-17.23-15.56-17.23-8.99,0-29.6,8.99-29.6,51.71,0,2.09.1,4.01.3,5.8-5.22,12.61-9.68,15.2-13.61,15.2-6.93,0-7.87-17.06,4.87-57.53-5.8-7.51-12.55-10.49-18.93-.57-7.13,11.05-11.25,24.54-20.42,46.28-.19-15.17,2.81-40.28,9-59.39-12.74-14.44-22.49-.38-42.17,62.01,2.63-23.41,6.38-47.03,8.07-55.26,1.49-6.94-5.62-7.87-16.13-2.25-2.43,11.99-5.62,39.86-6.75,63.09-.36,6.94,3.93,10.7,16.68,5.45,8.05-24.56,14.06-38.37,20.99-53.92-9.19,49.83-6.93,60.1,9.18,55.04l17.81-37.43c-4.5,23.8,1.87,39.11,14.06,39.11,8.04,0,15.47-3.15,20.15-9.5,4.73,9.64,14.32,12.47,24.63,11.96,3.66-.18,7.28-1.73,11.85-5.49,11.67-9.6,40.29-84.1,49.27-100.32,1.07-1.94,1.78-3.77,2.59-5.68.62-1.45.32-2.04-1.18-2.42ZM642.75,87.04c0-30.72,8.81-43.28,12.18-43.28,2.07,0,3,1.87,3,5.99,0,18.17-6.93,32.79-14.99,42.35-.19-1.49-.19-3.18-.19-5.07Z"/>
      </g>
      <g>
        <path class="cls-2" d="M36.58,30.69H0v81.96h16.39v-27.32h20.19c15.91,0,28.15-11.76,28.15-27.32s-12.24-27.32-28.15-27.32ZM36.22,69.89h-19.83v-23.76h19.83c6.66,0,11.64,5.11,11.64,11.88s-4.99,11.87-11.64,11.87Z"/>
        <path class="cls-2" d="M91.93,97.2v-18.05h33.61v-15.44h-33.61v-17.58h37.53v-15.44h-53.92v81.96h54.51v-15.44h-38.12Z"/>
        <path class="cls-2" d="M204.17,97.2c-5.1,0-9.26-2.13-12.11-6.17l-6.17-8.43c11.99-2.85,20.31-12.59,20.31-25.06,0-15.32-12-26.84-27.8-26.84h-35.75v81.96h16.39v-29.22h7.73l9.62,14.97c5.34,9.5,14.01,14.25,26.01,14.25h5.11v-15.44h-3.33ZM178.04,69.18h-19.01v-23.05h19.01c6.41,0,11.28,5,11.28,11.53s-4.87,11.52-11.28,11.52Z"/>
        <path class="cls-2" d="M256.79,98.27c-15.08,0-26.49-11.4-26.49-26.6s11.4-26.6,26.49-26.6c11.17,0,20.55,6.52,24.47,16.15h17.34c-4.39-18.65-21.02-31.95-41.81-31.95-24.7,0-43.23,18.29-43.23,42.4s18.53,42.4,43.23,42.4c20.79,0,37.41-13.31,41.81-31.95h-17.34c-3.93,9.62-13.31,16.15-24.47,16.15Z"/>
        <path class="cls-2" d="M326.75,97.2v-18.05h33.61v-15.44h-33.61v-17.58h37.53v-15.44h-53.92v81.96h54.51v-15.44h-38.12Z"/>
        <path class="cls-2" d="M431.39,30.69v53.81l-37.3-53.81h-16.63v81.96h16.39v-53.81l37.3,53.81h16.63V30.69h-16.39Z"/>
        <path class="cls-2" d="M459.18,30.69v15.44h22.33v66.52h16.39V46.13h22.33v-15.44h-61.06Z"/>
      </g>
    </g>
  </g>
</svg>