<svg width="443" height="485" viewBox="0 0 443 485" fill="none" xmlns="http://www.w3.org/2000/svg">
<path d="M294.286 404.487C294.286 459.736 261.718 484.555 221.544 484.555C181.369 484.555 148.801 459.736 148.801 404.487C148.801 380.951 162.966 347.575 179.058 318.07C201.1 277.658 221.544 242.475 221.544 242.475C221.544 242.475 241.988 277.658 264.029 318.07C280.121 347.575 294.286 380.951 294.286 404.487Z" fill="#0038C9"/>
<path d="M148.558 80.4636C148.558 25.2149 181.126 0.395481 221.301 0.395477C261.475 0.395474 294.043 25.2149 294.043 80.4636C294.043 103.999 279.878 137.376 263.786 166.88C241.745 207.293 221.301 242.475 221.301 242.475C221.301 242.475 200.857 207.293 178.815 166.88C162.723 137.376 148.558 103.999 148.558 80.4636Z" fill="#6E95F9"/>
<path d="M117.547 386.583C69.7006 414.207 31.9224 398.412 11.8351 363.62C-8.25218 328.828 -3.04194 288.213 44.8049 260.589C65.1874 248.821 101.175 244.4 134.772 243.584C180.791 242.466 221.482 242.58 221.482 242.58C221.482 242.58 201.235 277.876 177.258 317.171C159.752 345.859 137.93 374.815 117.547 386.583Z" fill="#164CD6"/>
<path d="M325.296 98.3676C373.143 70.7432 410.921 86.5382 431.008 121.33C451.095 156.123 445.885 196.737 398.038 224.361C377.656 236.129 341.668 240.55 308.071 241.366C262.052 242.484 221.361 242.37 221.361 242.37C221.361 242.37 241.608 207.074 265.585 167.779C283.091 139.091 304.913 110.135 325.296 98.3676Z" fill="#8BABFF"/>
<path d="M44.6834 224.571C-3.16345 196.947 -8.3737 156.332 11.7136 121.54C31.8009 86.7479 69.5791 70.9529 117.426 98.5773C137.808 110.345 159.631 139.301 177.136 167.989C201.114 207.284 221.361 242.58 221.361 242.58C221.361 242.58 180.67 242.694 134.651 241.576C101.053 240.76 65.0659 236.339 44.6834 224.571Z" fill="#3D6BE1"/>
<path d="M398.16 260.379C446.007 288.004 451.217 328.618 431.13 363.41C411.042 398.202 373.264 413.997 325.417 386.373C305.035 374.605 283.212 345.65 265.707 316.961C241.729 277.667 221.482 242.37 221.482 242.37C221.482 242.37 262.173 242.257 308.192 243.374C341.79 244.19 377.777 248.611 398.16 260.379Z" fill="#AEC4FF"/>
</svg>
