<svg width="1201" height="1201" viewBox="0 0 1201 1201" fill="none" xmlns="http://www.w3.org/2000/svg">
<path d="M600.128 0.565781C268.688 0.565781 0.12793 269.232 0.12793 600.566C0.12793 931.9 268.794 1200.57 600.128 1200.57C931.461 1200.57 1200.13 931.9 1200.13 600.566C1200.13 269.232 931.461 0.565781 600.128 0.565781ZM600.128 1056.6C348.293 1056.6 144.094 852.401 144.094 600.566C144.094 348.731 348.293 144.532 600.128 144.532C851.962 144.532 1056.16 348.731 1056.16 600.566C1056.16 852.401 851.962 1056.6 600.128 1056.6Z" fill="#6E4EFF"/>
<path d="M600.119 263.621C414.021 263.621 263.175 414.468 263.175 600.565C263.175 786.663 414.021 937.51 600.119 937.51C786.216 937.51 937.063 786.663 937.063 600.565C937.063 414.468 786.216 263.621 600.119 263.621ZM600.119 800.424C489.709 800.424 400.26 710.975 400.26 600.565C400.26 490.156 489.709 400.706 600.119 400.706C710.528 400.706 799.977 490.156 799.977 600.565C799.977 710.975 710.528 800.424 600.119 800.424Z" fill="#6E4EFF"/>
</svg>
